<svg width="197" height="158" viewBox="0 0 197 158" fill="none" xmlns="http://www.w3.org/2000/svg">
<g clip-path="url(#clip0_128_18660)">
<path d="M103.099 1.01123H71.3134C70.041 1.01123 69.0095 2.0427 69.0095 3.31508V6.43683C69.0095 7.70921 70.041 8.74068 71.3134 8.74068H103.099C104.371 8.74068 105.403 7.70921 105.403 6.43683V3.31508C105.403 2.0427 104.371 1.01123 103.099 1.01123Z" fill="#7AA4D6"/>
<path d="M173.613 28.9448H24.0064C19.5548 28.9448 15.946 32.5536 15.946 37.0052V102.1C15.946 106.552 19.5548 110.16 24.0064 110.16H173.613C178.065 110.16 181.673 106.552 181.673 102.1V37.0052C181.673 32.5536 178.065 28.9448 173.613 28.9448Z" fill="white"/>
<path d="M172.177 29.8628H25.4549C23.3204 29.8628 21.273 30.7094 19.762 32.217C18.2509 33.7246 17.3995 35.7699 17.3945 37.9044V65.6131C17.3942 66.1756 17.569 66.7242 17.8945 67.1829C18.2201 67.6416 18.6803 67.9876 19.2114 68.1729C19.494 68.2694 19.7393 68.4519 19.9128 68.6949C20.0864 68.9379 20.1795 69.2291 20.1791 69.5277C20.1795 69.8263 20.0864 70.1176 19.9128 70.3606C19.7393 70.6035 19.494 70.7861 19.2114 70.8826C18.6808 71.0668 18.2208 71.4116 17.8952 71.8692C17.5696 72.3269 17.3946 72.8745 17.3945 73.4362V101.151C17.3945 103.289 18.2437 105.339 19.7554 106.851C21.267 108.362 23.3171 109.211 25.4549 109.211H172.177C174.315 109.211 176.365 108.362 177.877 106.851C179.388 105.339 180.237 103.289 180.237 101.151V37.9044C180.232 35.7699 179.381 33.7246 177.87 32.217C176.359 30.7094 174.312 29.8628 172.177 29.8628Z" fill="#7AA4D6"/>
<path d="M122.91 29.8628H25.4549C23.3204 29.8628 21.273 30.7094 19.762 32.217C18.2509 33.7246 17.3995 35.7699 17.3945 37.9044V65.6131C17.3942 66.1756 17.569 66.7242 17.8945 67.1829C18.2201 67.6416 18.6803 67.9876 19.2114 68.1729C19.494 68.2694 19.7393 68.4519 19.9128 68.6949C20.0864 68.9379 20.1795 69.2291 20.1791 69.5277C20.1795 69.8263 20.0864 70.1176 19.9128 70.3606C19.7393 70.6035 19.494 70.7861 19.2114 70.8826C18.6808 71.0668 18.2208 71.4116 17.8952 71.8692C17.5696 72.3269 17.3946 72.8745 17.3945 73.4362V101.151C17.3945 103.289 18.2437 105.339 19.7554 106.851C21.267 108.362 23.3171 109.211 25.4549 109.211H122.91V29.8628Z" fill="#5352EE"/>
<path d="M149.157 42.8364H129.771C128.499 42.8364 127.467 43.8679 127.467 45.1403V58.2641C127.467 59.5365 128.499 60.568 129.771 60.568H149.157C150.43 60.568 151.461 59.5365 151.461 58.2641V45.1403C151.461 43.8679 150.43 42.8364 149.157 42.8364Z" fill="white"/>
<path d="M173.157 47.0384H157.548C157.39 47.0501 157.231 47.029 157.081 46.9764C156.931 46.9238 156.794 46.8408 156.677 46.7327C156.561 46.6246 156.468 46.4936 156.405 46.348C156.341 46.2024 156.309 46.0453 156.309 45.8865C156.309 45.7277 156.341 45.5705 156.405 45.4249C156.468 45.2793 156.561 45.1484 156.677 45.0403C156.794 44.9322 156.931 44.8492 157.081 44.7966C157.231 44.744 157.39 44.7229 157.548 44.7346H173.157C173.448 44.756 173.72 44.8867 173.919 45.1003C174.117 45.314 174.227 45.5948 174.227 45.8865C174.227 46.1781 174.117 46.459 173.919 46.6727C173.72 46.8863 173.448 47.017 173.157 47.0384Z" fill="white"/>
<path d="M173.157 52.845H157.548C157.244 52.845 156.952 52.7239 156.736 52.5085C156.521 52.2931 156.4 52.0008 156.4 51.6962C156.4 51.3915 156.521 51.0993 156.736 50.8838C156.952 50.6684 157.244 50.5474 157.548 50.5474H173.157C173.462 50.5474 173.754 50.6684 173.97 50.8838C174.185 51.0993 174.306 51.3915 174.306 51.6962C174.306 52.0008 174.185 52.2931 173.97 52.5085C173.754 52.7239 173.462 52.845 173.157 52.845Z" fill="white"/>
<path d="M165.59 58.6576H157.555C157.396 58.6692 157.237 58.6481 157.087 58.5955C156.937 58.5429 156.8 58.46 156.684 58.3518C156.567 58.2437 156.474 58.1128 156.411 57.9672C156.347 57.8216 156.315 57.6645 156.315 57.5056C156.315 57.3468 156.347 57.1897 156.411 57.0441C156.474 56.8985 156.567 56.7675 156.684 56.6594C156.8 56.5513 156.937 56.4684 157.087 56.4158C157.237 56.3632 157.396 56.342 157.555 56.3537H165.59C165.748 56.342 165.908 56.3632 166.057 56.4158C166.207 56.4684 166.345 56.5513 166.461 56.6594C166.577 56.7675 166.67 56.8985 166.734 57.0441C166.797 57.1897 166.83 57.3468 166.83 57.5056C166.83 57.6645 166.797 57.8216 166.734 57.9672C166.67 58.1128 166.577 58.2437 166.461 58.3518C166.345 58.46 166.207 58.5429 166.057 58.5955C165.908 58.6481 165.748 58.6692 165.59 58.6576Z" fill="white"/>
<path d="M149.157 64.9321H129.771C128.499 64.9321 127.467 65.9636 127.467 67.236V80.3598C127.467 81.6322 128.499 82.6637 129.771 82.6637H149.157C150.43 82.6637 151.461 81.6322 151.461 80.3598V67.236C151.461 65.9636 150.43 64.9321 149.157 64.9321Z" fill="white"/>
<path d="M173.157 69.1218H157.548C157.244 69.1218 156.952 69.0008 156.736 68.7853C156.521 68.5699 156.4 68.2777 156.4 67.973C156.4 67.6683 156.521 67.3761 156.736 67.1607C156.952 66.9452 157.244 66.8242 157.548 66.8242H173.157C173.462 66.8242 173.754 66.9452 173.97 67.1607C174.185 67.3761 174.306 67.6683 174.306 67.973C174.306 68.2777 174.185 68.5699 173.97 68.7853C173.754 69.0008 173.462 69.1218 173.157 69.1218Z" fill="white"/>
<path d="M173.157 74.9471H157.548C157.39 74.9588 157.231 74.9377 157.081 74.8851C156.931 74.8325 156.794 74.7495 156.677 74.6414C156.561 74.5333 156.468 74.4023 156.405 74.2567C156.341 74.1111 156.309 73.954 156.309 73.7952C156.309 73.6364 156.341 73.4792 156.405 73.3336C156.468 73.188 156.561 73.0571 156.677 72.949C156.794 72.8409 156.931 72.7579 157.081 72.7053C157.231 72.6527 157.39 72.6316 157.548 72.6433H173.157C173.448 72.6647 173.72 72.7954 173.919 73.009C174.117 73.2227 174.227 73.5035 174.227 73.7952C174.227 74.0868 174.117 74.3677 173.919 74.5813C173.72 74.795 173.448 74.9257 173.157 74.9471Z" fill="white"/>
<path d="M165.59 80.7533H157.555C157.396 80.7649 157.237 80.7438 157.087 80.6912C156.937 80.6386 156.8 80.5557 156.684 80.4475C156.567 80.3394 156.474 80.2085 156.411 80.0629C156.347 79.9173 156.315 79.7602 156.315 79.6013C156.315 79.4425 156.347 79.2854 156.411 79.1398C156.474 78.9942 156.567 78.8632 156.684 78.7551C156.8 78.647 156.937 78.5641 157.087 78.5115C157.237 78.4589 157.396 78.4377 157.555 78.4494H165.59C165.748 78.4377 165.908 78.4589 166.057 78.5115C166.207 78.5641 166.345 78.647 166.461 78.7551C166.577 78.8632 166.67 78.9942 166.734 79.1398C166.797 79.2854 166.83 79.4425 166.83 79.6013C166.83 79.7602 166.797 79.9173 166.734 80.0629C166.67 80.2085 166.577 80.3394 166.461 80.4475C166.345 80.5557 166.207 80.6386 166.057 80.6912C165.908 80.7438 165.748 80.7649 165.59 80.7533Z" fill="white"/>
<path d="M149.157 87.0283H129.771C128.499 87.0283 127.467 88.0598 127.467 89.3322V102.456C127.467 103.728 128.499 104.76 129.771 104.76H149.157C150.43 104.76 151.461 103.728 151.461 102.456V89.3322C151.461 88.0598 150.43 87.0283 149.157 87.0283Z" fill="white"/>
<path d="M173.157 91.2362H157.548C157.39 91.2478 157.231 91.2267 157.081 91.1741C156.931 91.1215 156.794 91.0386 156.677 90.9305C156.561 90.8224 156.468 90.6914 156.405 90.5458C156.341 90.4002 156.309 90.2431 156.309 90.0842C156.309 89.9254 156.341 89.7683 156.405 89.6227C156.468 89.4771 156.561 89.3461 156.677 89.238C156.794 89.1299 156.931 89.047 157.081 88.9944C157.231 88.9418 157.39 88.9207 157.548 88.9323H173.157C173.448 88.9537 173.72 89.0844 173.919 89.2981C174.117 89.5117 174.227 89.7926 174.227 90.0842C174.227 90.3759 174.117 90.6567 173.919 90.8704C173.72 91.0841 173.448 91.2147 173.157 91.2362Z" fill="white"/>
<path d="M173.157 97.0428H157.548C157.39 97.0545 157.231 97.0334 157.081 96.9808C156.931 96.9282 156.794 96.8452 156.677 96.7371C156.561 96.629 156.468 96.498 156.405 96.3524C156.341 96.2068 156.309 96.0497 156.309 95.8909C156.309 95.7321 156.341 95.5749 156.405 95.4293C156.468 95.2837 156.561 95.1528 156.677 95.0447C156.794 94.9366 156.931 94.8536 157.081 94.801C157.231 94.7484 157.39 94.7273 157.548 94.739H173.157C173.448 94.7604 173.72 94.891 173.919 95.1047C174.117 95.3184 174.227 95.5992 174.227 95.8909C174.227 96.1825 174.117 96.4634 173.919 96.6771C173.72 96.8907 173.448 97.0214 173.157 97.0428Z" fill="white"/>
<path d="M165.59 102.837H157.555C157.396 102.848 157.237 102.827 157.087 102.775C156.937 102.722 156.8 102.639 156.684 102.531C156.567 102.423 156.474 102.292 156.411 102.146C156.347 102.001 156.315 101.844 156.315 101.685C156.315 101.526 156.347 101.369 156.411 101.223C156.474 101.078 156.567 100.947 156.684 100.839C156.8 100.731 156.937 100.648 157.087 100.595C157.237 100.542 157.396 100.521 157.555 100.533H165.59C165.748 100.521 165.908 100.542 166.057 100.595C166.207 100.648 166.345 100.731 166.461 100.839C166.577 100.947 166.67 101.078 166.734 101.223C166.797 101.369 166.83 101.526 166.83 101.685C166.83 101.844 166.797 102.001 166.734 102.146C166.67 102.292 166.577 102.423 166.461 102.531C166.345 102.639 166.207 102.722 166.057 102.775C165.908 102.827 165.748 102.848 165.59 102.837Z" fill="white"/>
<path d="M77.991 88.7245C88.2575 84.3708 93.0508 72.5189 88.6971 62.2524C84.3435 51.9859 72.4916 47.1926 62.2251 51.5462C51.9586 55.8999 47.1653 67.7518 51.5189 78.0183C55.8726 88.2848 67.7245 93.0781 77.991 88.7245Z" fill="#00AFC9"/>
<path d="M70.102 89.9751C66.1798 89.9763 62.3454 88.8144 59.0837 86.6363C55.8219 84.4582 53.2794 81.3617 51.7776 77.7384C50.2758 74.1152 49.8822 70.128 50.6466 66.2811C51.411 62.4341 53.2991 58.9003 56.072 56.1265C58.845 53.3527 62.3782 51.4635 66.2249 50.6979C70.0716 49.9323 74.0589 50.3246 77.6826 51.8252C81.3063 53.3259 84.4036 55.8675 86.5828 59.1285C88.7619 62.3896 89.9251 66.2236 89.9251 70.1458C89.9185 75.4017 87.828 80.4406 84.1121 84.1577C80.3962 87.8748 75.3579 89.9669 70.102 89.9751Z" fill="#5352EE"/>
<path d="M81.3155 70.3519L72.8867 75.2156L64.458 80.0793V70.3519V60.6245L72.8867 65.4882L81.3155 70.3519Z" fill="#F2F1FF"/>
<path d="M151.473 85.1299H95.2008C93.9284 85.1299 92.897 86.1613 92.897 87.4337V122.922C92.897 124.194 93.9284 125.226 95.2008 125.226H151.473C152.746 125.226 153.777 124.194 153.777 122.922V87.4337C153.777 86.1613 152.746 85.1299 151.473 85.1299Z" fill="white"/>
<path d="M151.467 122.922V87.4341H95.1946V122.922H151.467Z" fill="#00AFC9"/>
<path d="M138.293 104.223L131.7 113.569L128.703 117.827L122.447 108.943L112.595 94.9697L95.1946 119.65V122.922H151.473L138.293 104.223Z" fill="#5352EE"/>
<path d="M133.005 97.667C133.005 98.5178 132.753 99.3495 132.28 100.057C131.808 100.764 131.136 101.316 130.35 101.641C129.564 101.967 128.699 102.052 127.864 101.886C127.03 101.72 126.263 101.31 125.662 100.709C125.06 100.107 124.65 99.3407 124.485 98.5063C124.319 97.6718 124.404 96.8068 124.729 96.0208C125.055 95.2348 125.606 94.5629 126.314 94.0902C127.021 93.6175 127.853 93.3652 128.704 93.3652C129.845 93.3652 130.939 93.8185 131.745 94.6252C132.552 95.4319 133.005 96.5261 133.005 97.667Z" fill="white"/>
<path d="M191.769 53.9688C191.764 53.8058 191.749 53.6432 191.725 53.4818C191.725 53.4818 191.725 53.4319 191.725 53.4069C191.722 53.3716 191.722 53.3361 191.725 53.3008C191.583 52.4384 191.276 51.6116 190.82 50.8658L190.67 50.6285C190.416 50.2554 190.125 49.9082 189.802 49.5921C189.646 49.438 189.481 49.2921 189.309 49.1551L188.972 48.9053L188.91 48.8679C188.835 48.8094 188.756 48.7572 188.672 48.7118C188.632 48.6798 188.588 48.6525 188.541 48.6306L188.479 48.5932H188.429H188.385C188.12 48.4499 187.847 48.3227 187.567 48.2123L187.405 48.1499H187.349H187.299L187.218 48.1187H187.161H187.086H187.024H186.987H186.943H186.868H186.812H186.749H186.712H186.643H186.593H186.525H186.475H186.443H186.412H186.281H186.219H186.044H185.969H185.813H185.719H184.72H184.589H184.545H184.371H184.283H184.158H184.065H183.896C183.703 48.1624 183.509 48.2061 183.322 48.2623L182.985 48.3746C182.466 48.5628 181.971 48.8123 181.511 49.1176L181.374 49.2113L181.143 49.3861L181.08 49.436L180.955 49.5359L180.887 49.5921L180.762 49.7107C180.556 49.9043 180.431 50.0479 180.418 50.0541L180.231 50.2727C180.187 50.3288 180.137 50.3788 180.094 50.4412C180 50.5599 179.906 50.691 179.794 50.8533C179.744 50.9282 179.694 51.0094 179.644 51.0968L179.519 51.3028L179.395 51.5526C179.351 51.6275 179.313 51.7087 179.276 51.7773C179.238 51.846 179.139 52.0958 179.07 52.2893C179.014 52.4579 178.957 52.6389 178.908 52.8075C178.851 53.0323 178.801 53.2446 178.776 53.4319C178.712 53.7862 178.679 54.1456 178.677 54.5057C178.672 54.861 178.697 55.216 178.751 55.5671C178.804 55.9141 178.883 56.2565 178.989 56.5911C179.094 56.9265 179.228 57.2523 179.388 57.5651C179.449 57.7035 179.52 57.8371 179.601 57.9647C179.69 58.1231 179.79 58.2753 179.9 58.4204L179.938 58.4766C180.056 58.6525 180.188 58.8195 180.331 58.9761C180.425 59.076 180.55 59.2196 180.649 59.3195C180.749 59.4194 180.88 59.5443 180.993 59.6379C181.111 59.7378 181.161 59.7815 181.274 59.8627C181.404 59.9716 181.542 60.0717 181.686 60.1624L181.823 60.2498C181.872 60.2855 181.925 60.3169 181.979 60.3434L182.079 60.3996L182.223 60.4745H182.26C182.462 60.5792 182.671 60.6709 182.885 60.7492C182.935 60.7492 182.997 60.7992 183.078 60.8242H183.147L183.265 60.8679H183.347H183.378H183.422H183.496H183.571C183.842 60.9445 184.117 61.0029 184.396 61.0427H184.47H184.545H184.689H184.914H185.12H185.532H185.85C186.05 61.0427 186.319 60.9927 186.512 60.9615C186.685 60.9337 186.856 60.8962 187.024 60.8491L187.149 60.8117L187.492 60.7055L187.611 60.6618L187.898 60.5557H187.948C188.06 60.512 188.192 60.4433 188.316 60.3871L188.466 60.306C188.617 60.2326 188.763 60.1492 188.903 60.0562L189.24 59.8252L189.309 59.7753L189.428 59.6816L189.528 59.6067L189.709 59.4568C189.842 59.3468 189.969 59.2301 190.09 59.1072C190.19 59.0073 190.296 58.8887 190.421 58.7451C190.557 58.467 190.671 58.179 190.764 57.8835L190.92 57.615L190.982 57.4964L191.07 57.3278V57.2779C191.114 57.1905 191.151 57.0968 191.195 56.9969C191.238 56.897 191.307 56.7347 191.345 56.6161C191.422 56.4122 191.487 56.2036 191.538 55.9917C191.575 55.8626 191.605 55.7312 191.626 55.5984C191.626 55.4672 191.675 55.3236 191.694 55.1863C191.694 55.1488 191.694 55.1176 191.694 55.0864C191.694 54.8929 191.725 54.6931 191.732 54.4933V54.4558C191.782 54.306 191.782 54.1374 191.769 53.9688Z" fill="#5352EE"/>
<path d="M129.284 6.39977C129.288 6.35407 129.288 6.30813 129.284 6.26242V6.21872C129.249 5.98174 129.167 5.75439 129.041 5.55066L128.997 5.48823C128.928 5.38437 128.849 5.2881 128.76 5.20102L128.622 5.08239L128.535 5.01372L128.466 4.97626H128.429H128.329C128.256 4.93594 128.181 4.90048 128.104 4.87012H128.06H127.08L126.924 4.90758L126.83 4.9388C126.689 4.98986 126.555 5.05912 126.431 5.14483H126.393L126.331 5.19478H126.293L126.2 5.28843L126.144 5.35087L126.106 5.39457C126.076 5.42982 126.049 5.46741 126.025 5.50696L125.988 5.57564L125.95 5.63182L125.919 5.7005L125.888 5.76294C125.866 5.80732 125.847 5.85322 125.831 5.9003C125.813 5.94696 125.799 5.99497 125.788 6.0439C125.788 6.10633 125.788 6.16252 125.757 6.20623C125.74 6.30325 125.729 6.40128 125.725 6.49967C125.715 6.59719 125.715 6.69559 125.725 6.79312C125.737 6.88655 125.758 6.97858 125.788 7.06783C125.816 7.15997 125.852 7.24973 125.894 7.3363C125.912 7.37323 125.933 7.40872 125.956 7.44245C125.98 7.48635 126.007 7.52813 126.038 7.56731L126.144 7.69842L126.231 7.79208L126.325 7.87949L126.406 7.94192L126.518 8.02309H126.556H126.593H126.624H126.662L126.818 8.098H126.874H126.905H126.993C127.067 8.11742 127.142 8.13202 127.218 8.14171H127.623H127.804L127.942 8.11049L128.035 8.07927H128.073L128.148 8.04806L128.248 7.99812H128.291C128.333 7.97896 128.373 7.95597 128.41 7.92944L128.497 7.867H128.535L128.585 7.8233L128.685 7.72964L128.772 7.62974C128.831 7.56683 128.884 7.49776 128.928 7.42371C128.94 7.39743 128.955 7.37235 128.972 7.34879V7.30509L129.009 7.23016C129.009 7.1927 129.041 7.16149 129.053 7.13027C129.073 7.07312 129.09 7.01472 129.103 6.95544C129.106 6.92013 129.106 6.88462 129.103 6.84931V6.73693C129.106 6.68286 129.106 6.62867 129.103 6.5746C129.17 6.52371 129.231 6.46502 129.284 6.39977Z" fill="#7AA4D6"/>
<path d="M134.828 132.724C134.832 132.681 134.832 132.637 134.828 132.593V132.543C134.79 132.309 134.707 132.085 134.585 131.882L134.547 131.813C134.477 131.712 134.398 131.618 134.31 131.532C134.266 131.494 134.217 131.445 134.173 131.413L134.085 131.345L134.017 131.301H133.979C133.907 131.261 133.832 131.225 133.755 131.195H133.711H133.68H132.699H132.656C132.602 131.201 132.55 131.213 132.5 131.232L132.406 131.263C132.265 131.314 132.131 131.381 132.006 131.463H131.969L131.906 131.507V131.538L131.869 131.569C131.835 131.596 131.806 131.627 131.782 131.663L131.725 131.719L131.688 131.763C131.658 131.798 131.631 131.836 131.607 131.875L131.569 131.938L131.532 132L131.501 132.063L131.469 132.125C131.447 132.172 131.429 132.22 131.413 132.269C131.413 132.312 131.382 132.362 131.363 132.406C131.363 132.468 131.363 132.525 131.326 132.568C131.297 132.761 131.297 132.957 131.326 133.149C131.342 133.244 131.365 133.338 131.394 133.43C131.424 133.522 131.459 133.611 131.501 133.698C131.501 133.742 131.538 133.767 131.557 133.805L131.638 133.929L131.744 134.067L131.832 134.16L131.925 134.248L132 134.31L132.112 134.391H132.144H132.187H132.219H132.262L132.425 134.466H132.481H132.512H132.599C132.673 134.489 132.748 134.506 132.824 134.516H133.224H133.405L133.548 134.485H133.642H133.673L133.755 134.454L133.854 134.41H133.898L134.017 134.348L134.11 134.285H134.142L134.192 134.248L134.291 134.154C134.324 134.125 134.355 134.093 134.385 134.061C134.444 133.999 134.494 133.929 134.535 133.855L134.579 133.786V133.748C134.581 133.734 134.581 133.719 134.579 133.705L134.616 133.63C134.63 133.595 134.643 133.56 134.654 133.524C134.654 133.474 134.672 133.418 134.71 133.355C134.71 133.318 134.71 133.28 134.71 133.249C134.713 133.212 134.713 133.174 134.71 133.137V133.105C134.713 133.051 134.713 132.997 134.71 132.943C134.758 132.875 134.798 132.802 134.828 132.724Z" fill="#7AA4D6"/>
<path d="M196.608 66.5057C196.611 66.4621 196.611 66.4183 196.608 66.3746V66.3247C196.569 66.0906 196.487 65.8661 196.364 65.6629L196.327 65.5942C196.256 65.4935 196.177 65.3995 196.09 65.3132C196.046 65.2758 195.996 65.2258 195.952 65.1946L195.865 65.1259L195.796 65.0822H195.759C195.686 65.0419 195.611 65.0064 195.534 64.9761H195.49H194.56H194.516C194.463 64.9818 194.41 64.9944 194.36 65.0135H194.266C194.126 65.064 193.992 65.131 193.867 65.2133H193.829C193.806 65.2264 193.785 65.2433 193.767 65.2633H193.736L193.698 65.2945C193.664 65.3209 193.635 65.3525 193.611 65.3881L193.555 65.4443L193.517 65.488L193.43 65.6004L193.392 65.6629L193.355 65.7253L193.324 65.7877V65.8502C193.302 65.8967 193.283 65.9447 193.268 65.9938L193.224 66.1311C193.224 66.1936 193.193 66.2497 193.186 66.2935C193.157 66.4859 193.157 66.6816 193.186 66.8741C193.201 66.9695 193.224 67.0635 193.255 67.1551C193.284 67.2468 193.32 67.3365 193.361 67.4235C193.361 67.4672 193.399 67.4922 193.417 67.5297L193.499 67.6545C193.53 67.7029 193.566 67.7488 193.605 67.7919L193.692 67.8855L193.786 67.973L193.861 68.0354L193.973 68.1166H194.011H194.054H194.085H194.129L194.291 68.1915H194.348H194.435C194.509 68.212 194.584 68.2266 194.66 68.2352H195.059H195.24L195.384 68.204H195.415H195.509H195.54H195.621L195.721 68.1603H195.765L195.884 68.0978L195.977 68.0354H196.008L196.058 67.9917L196.158 67.898L196.252 67.8044C196.311 67.7426 196.361 67.6733 196.402 67.5983L196.439 67.5297V67.4922C196.442 67.4778 196.442 67.4629 196.439 67.4485L196.477 67.3736C196.491 67.3389 196.503 67.3034 196.514 67.2674C196.514 67.2175 196.533 67.1613 196.57 67.0989C196.57 67.0614 196.57 67.0239 196.57 66.9927C196.573 66.9553 196.573 66.9177 196.57 66.8803C196.57 66.8304 196.57 66.7742 196.57 66.718C196.59 66.6488 196.603 66.5776 196.608 66.5057Z" fill="#00AFC9"/>
<path d="M3.64625 66.5057C3.64973 66.4621 3.64973 66.4183 3.64625 66.3746V66.3247C3.6083 66.0895 3.52336 65.8645 3.39651 65.6629L3.35905 65.5942C3.28868 65.4935 3.20927 65.3995 3.1218 65.3132C3.07809 65.2758 3.02814 65.2258 2.98444 65.1946L2.89079 65.1259L2.82211 65.0822H2.78465C2.71216 65.0419 2.63707 65.0064 2.55988 64.9761H2.51618H1.50473H1.46103C1.4076 64.9818 1.35514 64.9944 1.30494 65.0135H1.21129C1.0706 65.064 0.936451 65.131 0.811704 65.2133H0.77424C0.750818 65.2264 0.729723 65.2433 0.711806 65.2633H0.674346L0.636887 65.2945L0.543233 65.3881L0.493284 65.4443L0.455825 65.488L0.374656 65.6004C0.362212 65.6226 0.347571 65.6436 0.330952 65.6629C0.334331 65.6835 0.334331 65.7046 0.330952 65.7253V65.7877C0.329832 65.8085 0.329832 65.8294 0.330952 65.8502C0.306713 65.8965 0.285848 65.9445 0.268518 65.9938L0.224814 66.1311C0.208436 66.1843 0.195918 66.2385 0.187354 66.2935C0.158252 66.4859 0.158252 66.6816 0.187354 66.8741C0.199287 66.9701 0.222335 67.0644 0.256033 67.1551C0.282653 67.2478 0.318198 67.3377 0.362171 67.4235C0.362171 67.4672 0.39963 67.4922 0.418361 67.5297L0.499529 67.6545C0.531394 67.7029 0.566874 67.7488 0.605667 67.7919L0.693076 67.8855L0.78673 67.973L0.861648 68.0354L0.974032 68.1166H1.0115H1.0552H1.0989L1.26124 68.1915H1.31743H1.40483C1.47847 68.212 1.55363 68.2266 1.6296 68.2352H2.02918H2.21025L2.35385 68.204H2.4475H2.47872H2.55988L2.65978 68.1603H2.70348L2.82211 68.0978L2.91576 68.0354L2.96571 67.9917L3.07185 67.898L3.1655 67.8044C3.22234 67.741 3.27255 67.6719 3.31534 67.5983L3.35281 67.5297V67.4922C3.35603 67.4778 3.35603 67.4629 3.35281 67.4485L3.39027 67.3736C3.40455 67.3389 3.41705 67.3034 3.42773 67.2674C3.42773 67.2175 3.44646 67.1613 3.48392 67.0989C3.48639 67.0635 3.48639 67.0281 3.48392 66.9927C3.48987 66.9555 3.48987 66.9176 3.48392 66.8803C3.48392 66.8304 3.48392 66.7742 3.48392 66.718C3.54718 66.6547 3.60177 66.5834 3.64625 66.5057Z" fill="#7AA4D6"/>
<g style="mix-blend-mode:multiply" opacity="0.6">
<g style="mix-blend-mode:multiply" opacity="0.01">
<path d="M23.4382 155.682C23.4382 155.114 28.739 154.652 35.3009 154.652C41.8628 154.652 48.2874 155.114 48.2874 155.682C48.2874 156.25 41.8378 156.706 35.3009 156.706C28.7639 156.706 23.4382 156.244 23.4382 155.682Z" fill="#5352EE"/>
</g>
<g style="mix-blend-mode:multiply" opacity="0.01">
<path d="M23.5569 155.682C23.5569 155.12 28.8326 154.658 35.3446 154.658C41.8566 154.658 48.2687 155.12 48.2687 155.682C48.2687 156.244 41.8503 156.699 35.3446 156.699C28.8389 156.699 23.5569 156.244 23.5569 155.682Z" fill="#5352EE"/>
</g>
<g style="mix-blend-mode:multiply" opacity="0.01">
<path d="M23.6816 155.682C23.6816 155.12 28.9324 154.67 35.4069 154.67C41.8814 154.67 48.2685 155.12 48.2685 155.682C48.2685 156.244 41.8814 156.693 35.4069 156.693C28.9324 156.693 23.6816 156.238 23.6816 155.682Z" fill="#5352EE"/>
</g>
<g style="mix-blend-mode:multiply" opacity="0.01">
<path d="M23.8003 155.682C23.8003 155.126 29.0261 154.677 35.4694 154.677C41.9127 154.677 48.2686 155.126 48.2686 155.682C48.2686 156.238 41.9127 156.681 35.4694 156.681C29.0261 156.681 23.8003 156.231 23.8003 155.682Z" fill="#5352EE"/>
</g>
<g style="mix-blend-mode:multiply" opacity="0.02">
<path d="M23.9189 155.682C23.9189 155.126 29.1198 154.683 35.5319 154.683C41.9439 154.683 48.2686 155.126 48.2686 155.682C48.2686 156.238 41.9439 156.675 35.5319 156.675C29.1198 156.675 23.9189 156.231 23.9189 155.682Z" fill="#5352EE"/>
</g>
<g style="mix-blend-mode:multiply" opacity="0.02">
<path d="M24.0625 155.682C24.0625 155.132 29.2384 154.689 35.6192 154.689C42.0001 154.689 48.2935 155.132 48.2935 155.682C48.2935 156.231 42.0001 156.668 35.6192 156.668C29.2384 156.668 24.0625 156.225 24.0625 155.682Z" fill="#5352EE"/>
</g>
<g style="mix-blend-mode:multiply" opacity="0.02">
<path d="M24.1562 155.682C24.1562 155.139 29.3071 154.695 35.6568 154.695C42.0064 154.695 48.2686 155.139 48.2686 155.682C48.2686 156.225 42.0252 156.662 35.6568 156.662C29.2884 156.662 24.1562 156.219 24.1562 155.682Z" fill="#5352EE"/>
</g>
<g style="mix-blend-mode:multiply" opacity="0.03">
<path d="M24.2749 155.682C24.2749 155.139 29.4008 154.702 35.7192 154.702C42.0377 154.702 48.2687 155.139 48.2687 155.682C48.2687 156.225 42.0252 156.656 35.7192 156.656C29.4133 156.656 24.2749 156.219 24.2749 155.682Z" fill="#5352EE"/>
</g>
<g style="mix-blend-mode:multiply" opacity="0.03">
<path d="M24.3936 155.682C24.3936 155.145 29.4945 154.714 35.7817 154.714C42.0689 154.714 48.2687 155.145 48.2687 155.682C48.2687 156.219 42.0689 156.649 35.7817 156.649C29.4945 156.649 24.3936 156.212 24.3936 155.682Z" fill="#5352EE"/>
</g>
<g style="mix-blend-mode:multiply" opacity="0.03">
<path d="M24.5183 155.682C24.5183 155.151 29.588 154.72 35.844 154.72C42.1 154.72 48.2686 155.151 48.2686 155.682C48.2686 156.212 42.1 156.637 35.844 156.637C29.588 156.637 24.5183 156.212 24.5183 155.682Z" fill="#5352EE"/>
</g>
<g style="mix-blend-mode:multiply" opacity="0.03">
<path d="M24.637 155.682C24.637 155.151 29.6817 154.727 35.9065 154.727C42.1312 154.727 48.2686 155.151 48.2686 155.682C48.2686 156.213 42.1312 156.631 35.9065 156.631C29.6817 156.631 24.637 156.206 24.637 155.682Z" fill="#5352EE"/>
</g>
<g style="mix-blend-mode:multiply" opacity="0.04">
<path d="M24.7556 155.682C24.7556 155.157 29.7504 154.733 35.9939 154.733C42.2374 154.733 48.2936 155.157 48.2936 155.682C48.2936 156.206 42.1875 156.625 35.9939 156.625C29.8004 156.625 24.7556 156.2 24.7556 155.682Z" fill="#5352EE"/>
</g>
<g style="mix-blend-mode:multiply" opacity="0.04">
<path d="M24.8743 155.682C24.8743 155.164 29.8691 154.739 36.0314 154.739C42.1937 154.739 48.2687 155.164 48.2687 155.682C48.2687 156.2 42.1937 156.619 36.0314 156.619C29.8691 156.619 24.8743 156.2 24.8743 155.682Z" fill="#5352EE"/>
</g>
<g style="mix-blend-mode:multiply" opacity="0.04">
<path d="M24.9929 155.682C24.9929 155.163 29.9877 154.745 36.0939 154.745C42.2 154.745 48.2687 155.163 48.2687 155.682C48.2687 156.2 42.225 156.612 36.0939 156.612C29.9627 156.612 24.9929 156.194 24.9929 155.682Z" fill="#5352EE"/>
</g>
<g style="mix-blend-mode:multiply" opacity="0.05">
<path d="M25.1113 155.682C25.1113 155.17 30.0562 154.758 36.1561 154.758C42.256 154.758 48.2685 155.17 48.2685 155.682C48.2685 156.194 42.256 156.606 36.1561 156.606C30.0562 156.606 25.1113 156.188 25.1113 155.682Z" fill="#5352EE"/>
</g>
<g style="mix-blend-mode:multiply" opacity="0.05">
<path d="M25.23 155.682C25.23 155.176 30.1499 154.764 36.2185 154.764C42.2872 154.764 48.2685 155.176 48.2685 155.682C48.2685 156.188 42.2872 156.594 36.2185 156.594C30.1499 156.594 25.23 156.188 25.23 155.682Z" fill="#5352EE"/>
</g>
<g style="mix-blend-mode:multiply" opacity="0.05">
<path d="M25.355 155.682C25.355 155.176 30.2436 154.771 36.2811 154.771C42.3186 154.771 48.2686 155.176 48.2686 155.682C48.2686 156.188 42.3186 156.587 36.2811 156.587C30.2436 156.587 25.355 156.182 25.355 155.682Z" fill="#5352EE"/>
</g>
<g style="mix-blend-mode:multiply" opacity="0.05">
<path d="M25.4736 155.682C25.4736 155.182 30.3373 154.776 36.3436 154.776C42.3498 154.776 48.2687 155.182 48.2687 155.682C48.2687 156.181 42.3498 156.581 36.3436 156.581C30.3373 156.581 25.4736 156.175 25.4736 155.682Z" fill="#5352EE"/>
</g>
<g style="mix-blend-mode:multiply" opacity="0.06">
<path d="M25.5923 155.682C25.5923 155.182 30.431 154.783 36.406 154.783C42.3811 154.783 48.2687 155.182 48.2687 155.682C48.2687 156.181 42.3811 156.575 36.406 156.575C30.431 156.575 25.5923 156.175 25.5923 155.682Z" fill="#5352EE"/>
</g>
<g style="mix-blend-mode:multiply" opacity="0.06">
<path d="M25.7107 155.682C25.7107 155.189 30.5244 154.789 36.4682 154.789C42.412 154.789 48.2685 155.189 48.2685 155.682C48.2685 156.175 42.412 156.568 36.4682 156.568C30.5244 156.568 25.7107 156.169 25.7107 155.682Z" fill="#5352EE"/>
</g>
<g style="mix-blend-mode:multiply" opacity="0.06">
<path d="M25.8293 155.682C25.8293 155.195 30.6181 154.801 36.5307 154.801C42.4433 154.801 48.2685 155.195 48.2685 155.682C48.2685 156.169 42.4433 156.562 36.5307 156.562C30.6181 156.562 25.8293 156.162 25.8293 155.682Z" fill="#5352EE"/>
</g>
<g style="mix-blend-mode:multiply" opacity="0.06">
<path d="M25.9355 155.682C25.9355 155.195 30.7056 154.808 36.5495 154.808C42.3934 154.808 48.2248 155.195 48.2248 155.682C48.2248 156.169 42.4309 156.55 36.5495 156.55C30.6681 156.55 25.9355 156.162 25.9355 155.682Z" fill="#5352EE"/>
</g>
<g style="mix-blend-mode:multiply" opacity="0.07">
<path d="M26.0667 155.682C26.0667 155.201 30.8117 154.814 36.6806 154.814C42.5495 154.814 48.2935 155.201 48.2935 155.682C48.2935 156.163 42.5245 156.543 36.6806 156.543C30.8367 156.543 26.0667 156.156 26.0667 155.682Z" fill="#5352EE"/>
</g>
<g style="mix-blend-mode:multiply" opacity="0.07">
<path d="M26.1917 155.682C26.1917 155.207 30.9055 154.82 36.7182 154.82C42.5309 154.82 48.2687 155.207 48.2687 155.682C48.2687 156.156 42.5309 156.537 36.7182 156.537C30.9055 156.537 26.1917 156.156 26.1917 155.682Z" fill="#5352EE"/>
</g>
<g style="mix-blend-mode:multiply" opacity="0.07">
<path d="M26.3103 155.682C26.3103 155.208 30.9992 154.827 36.7806 154.827C42.5621 154.827 48.2687 155.208 48.2687 155.682C48.2687 156.157 42.5621 156.531 36.7806 156.531C30.9992 156.531 26.3103 156.15 26.3103 155.682Z" fill="#5352EE"/>
</g>
<g style="mix-blend-mode:multiply" opacity="0.08">
<path d="M26.4287 155.682C26.4287 155.213 31.0926 154.833 36.8429 154.833C42.5931 154.833 48.2685 155.213 48.2685 155.682C48.2685 156.15 42.5931 156.525 36.8429 156.525C31.0926 156.525 26.4287 156.144 26.4287 155.682Z" fill="#5352EE"/>
</g>
<g style="mix-blend-mode:multiply" opacity="0.08">
<path d="M26.5598 155.682C26.5598 155.22 31.1987 154.845 36.9178 154.845C42.6368 154.845 48.2809 155.22 48.2809 155.682C48.2809 156.144 42.6618 156.518 36.9178 156.518C31.1738 156.518 26.5598 156.144 26.5598 155.682Z" fill="#5352EE"/>
</g>
<g style="mix-blend-mode:multiply" opacity="0.08">
<path d="M26.666 155.682C26.666 155.22 31.28 154.852 36.9678 154.852C42.6556 154.852 48.2685 155.22 48.2685 155.682C48.2685 156.144 42.6494 156.506 36.9678 156.506C31.2862 156.506 26.666 156.138 26.666 155.682Z" fill="#5352EE"/>
</g>
<g style="mix-blend-mode:multiply" opacity="0.08">
<path d="M26.7847 155.682C26.7847 155.226 31.3736 154.858 37.0303 154.858C42.6869 154.858 48.2685 155.226 48.2685 155.682C48.2685 156.138 42.6869 156.5 37.0303 156.5C31.3736 156.5 26.7847 156.132 26.7847 155.682Z" fill="#5352EE"/>
</g>
<g style="mix-blend-mode:multiply" opacity="0.09">
<path d="M26.9033 155.682C26.9033 155.232 31.4673 154.864 37.0927 154.864C42.7181 154.864 48.2686 155.232 48.2686 155.682C48.2686 156.131 42.7181 156.493 37.0927 156.493C31.4673 156.493 26.9033 156.131 26.9033 155.682Z" fill="#5352EE"/>
</g>
<g style="mix-blend-mode:multiply" opacity="0.09">
<path d="M27.0281 155.682C27.0281 155.232 31.5609 154.87 37.155 154.87C42.7492 154.87 48.2685 155.232 48.2685 155.682C48.2685 156.131 42.7492 156.487 37.155 156.487C31.5609 156.487 27.0281 156.125 27.0281 155.682Z" fill="#5352EE"/>
</g>
<g style="mix-blend-mode:multiply" opacity="0.09">
<path d="M27.1467 155.682C27.1467 155.239 31.6545 154.876 37.2175 154.876C42.7805 154.876 48.2685 155.239 48.2685 155.682C48.2685 156.125 42.7805 156.481 37.2175 156.481C31.6545 156.481 27.1467 156.119 27.1467 155.682Z" fill="#5352EE"/>
</g>
<g style="mix-blend-mode:multiply" opacity="0.1">
<path d="M27.2654 155.682C27.2654 155.238 31.7482 154.889 37.255 154.889C42.7617 154.889 48.2435 155.238 48.2435 155.682C48.2435 156.125 42.7867 156.475 37.255 156.475C31.7232 156.475 27.2654 156.119 27.2654 155.682Z" fill="#5352EE"/>
</g>
<g style="mix-blend-mode:multiply" opacity="0.1">
<path d="M27.384 155.682C27.384 155.245 31.8419 154.895 37.3736 154.895C42.9054 154.895 48.2998 155.245 48.2998 155.682C48.2998 156.119 42.8742 156.462 37.3736 156.462C31.8731 156.462 27.384 156.113 27.384 155.682Z" fill="#5352EE"/>
</g>
<g style="mix-blend-mode:multiply" opacity="0.1">
<path d="M27.5027 155.682C27.5027 155.251 31.9356 154.901 37.4049 154.901C42.8742 154.901 48.2686 155.251 48.2686 155.682C48.2686 156.113 42.8742 156.456 37.4049 156.456C31.9356 156.456 27.5027 156.106 27.5027 155.682Z" fill="#5352EE"/>
</g>
<g style="mix-blend-mode:multiply" opacity="0.1">
<path d="M27.6213 155.682C27.6213 155.251 32.0293 154.908 37.4673 154.908C42.9054 154.908 48.2686 155.251 48.2686 155.682C48.2686 156.113 42.9054 156.45 37.4673 156.45C32.0293 156.45 27.6213 156.106 27.6213 155.682Z" fill="#5352EE"/>
</g>
<g style="mix-blend-mode:multiply" opacity="0.11">
<path d="M27.74 155.682C27.74 155.257 32.1104 154.914 37.5298 154.914C42.9492 154.914 48.2686 155.257 48.2686 155.682C48.2686 156.107 42.9367 156.444 37.5298 156.444C32.1229 156.444 27.74 156.1 27.74 155.682Z" fill="#5352EE"/>
</g>
<g style="mix-blend-mode:multiply" opacity="0.11">
<path d="M27.8647 155.682C27.8647 155.263 32.2352 154.92 37.5921 154.92C42.949 154.92 48.2685 155.263 48.2685 155.682C48.2685 156.1 42.9678 156.437 37.5921 156.437C32.2165 156.437 27.8647 156.1 27.8647 155.682Z" fill="#5352EE"/>
</g>
<g style="mix-blend-mode:multiply" opacity="0.11">
<path d="M27.9834 155.682C27.9834 155.264 32.3101 154.933 37.6546 154.933C42.999 154.933 48.2685 155.264 48.2685 155.682C48.2685 156.1 42.999 156.431 37.6546 156.431C32.3101 156.431 27.9834 156.094 27.9834 155.682Z" fill="#5352EE"/>
</g>
<g style="mix-blend-mode:multiply" opacity="0.12">
<path d="M28.1021 155.682C28.1021 155.27 32.4101 154.939 37.717 154.939C43.024 154.939 48.2686 155.27 48.2686 155.682C48.2686 156.094 43.0303 156.419 37.717 156.419C32.4038 156.419 28.1021 156.088 28.1021 155.682Z" fill="#5352EE"/>
</g>
<g style="mix-blend-mode:multiply" opacity="0.12">
<path d="M28.2207 155.682C28.2207 155.276 32.5037 154.945 37.7795 154.945C43.0553 154.945 48.2686 155.276 48.2686 155.682C48.2686 156.088 43.0615 156.413 37.7795 156.413C32.4975 156.413 28.2207 156.088 28.2207 155.682Z" fill="#5352EE"/>
</g>
<g style="mix-blend-mode:multiply" opacity="0.12">
<path d="M28.3394 155.682C28.3394 155.276 32.5974 154.951 37.842 154.951C43.0865 154.951 48.2686 155.276 48.2686 155.682C48.2686 156.087 43.0927 156.406 37.842 156.406C32.5912 156.406 28.3394 156.081 28.3394 155.682Z" fill="#5352EE"/>
</g>
<g style="mix-blend-mode:multiply" opacity="0.12">
<path d="M28.4329 155.682C28.4329 155.282 32.666 154.958 37.8793 154.958C43.0926 154.958 48.2435 155.282 48.2435 155.682C48.2435 156.081 43.0988 156.4 37.8793 156.4C32.6597 156.4 28.4329 156.075 28.4329 155.682Z" fill="#5352EE"/>
</g>
<g style="mix-blend-mode:multiply" opacity="0.13">
<path d="M28.5767 155.682C28.5767 155.289 32.7848 154.964 37.9419 154.964C43.099 154.964 48.2437 155.289 48.2437 155.682C48.2437 156.075 43.1303 156.394 37.9419 156.394C32.7536 156.394 28.5767 156.075 28.5767 155.682Z" fill="#5352EE"/>
</g>
<g style="mix-blend-mode:multiply" opacity="0.13">
<path d="M28.7014 155.682C28.7014 155.289 32.8783 154.977 38.0292 154.977C43.1801 154.977 48.2685 155.289 48.2685 155.682C48.2685 156.075 43.1863 156.388 38.0292 156.388C32.8721 156.388 28.7014 156.069 28.7014 155.682Z" fill="#5352EE"/>
</g>
<g style="mix-blend-mode:multiply" opacity="0.13">
<path d="M28.8201 155.682C28.8201 155.295 32.972 154.982 38.0917 154.982C43.2113 154.982 48.2686 155.295 48.2686 155.682C48.2686 156.069 43.2176 156.375 38.0917 156.375C32.9658 156.375 28.8201 156.063 28.8201 155.682Z" fill="#5352EE"/>
</g>
<g style="mix-blend-mode:multiply" opacity="0.14">
<path d="M28.9387 155.682C28.9387 155.295 33.0657 154.989 38.1541 154.989C43.2426 154.989 48.2686 155.295 48.2686 155.682C48.2686 156.069 43.2738 156.369 38.1541 156.369C33.0345 156.369 28.9387 156.063 28.9387 155.682Z" fill="#5352EE"/>
</g>
<g style="mix-blend-mode:multiply" opacity="0.14">
<path d="M29.0574 155.682C29.0574 155.301 33.1593 154.995 38.2166 154.995C43.2738 154.995 48.2686 155.301 48.2686 155.682C48.2686 156.063 43.2738 156.362 38.2166 156.362C33.1593 156.362 29.0574 156.057 29.0574 155.682Z" fill="#5352EE"/>
</g>
<g style="mix-blend-mode:multiply" opacity="0.14">
<path d="M29.176 155.682C29.176 155.307 33.253 155.001 38.279 155.001C43.3051 155.001 48.2686 155.307 48.2686 155.682C48.2686 156.057 43.3113 156.356 38.279 156.356C33.2468 156.356 29.176 156.05 29.176 155.682Z" fill="#5352EE"/>
</g>
<g style="mix-blend-mode:multiply" opacity="0.14">
<path d="M29.2947 155.682C29.2947 155.307 33.3467 155.007 38.3415 155.007C43.3363 155.007 48.2687 155.307 48.2687 155.682C48.2687 156.056 43.3425 156.35 38.3415 156.35C33.3405 156.35 29.2947 156.05 29.2947 155.682Z" fill="#5352EE"/>
</g>
<g style="mix-blend-mode:multiply" opacity="0.15">
<path d="M29.4133 155.682C29.4133 155.313 33.4404 155.02 38.404 155.02C43.3675 155.02 48.2687 155.313 48.2687 155.682C48.2687 156.05 43.3738 156.344 38.404 156.344C33.4341 156.344 29.4133 156.044 29.4133 155.682Z" fill="#5352EE"/>
</g>
<g style="mix-blend-mode:multiply" opacity="0.15">
<path d="M29.5381 155.682C29.5381 155.32 33.5339 155.026 38.4663 155.026C43.3987 155.026 48.2686 155.32 48.2686 155.682C48.2686 156.044 43.4049 156.306 38.4663 156.306C33.5277 156.306 29.5381 156.044 29.5381 155.682Z" fill="#5352EE"/>
</g>
<g style="mix-blend-mode:multiply" opacity="0.15">
<path d="M29.6816 155.682C29.6816 155.32 33.6525 155.058 38.5537 155.058C43.4548 155.058 48.2935 155.345 48.2935 155.682C48.2935 156.019 43.461 156.306 38.5537 156.306C33.6463 156.306 29.6816 156.038 29.6816 155.682Z" fill="#5352EE"/>
</g>
<g style="mix-blend-mode:multiply" opacity="0.15">
<path d="M29.7754 155.682C29.7754 155.326 33.7213 155.058 38.5912 155.058C43.4611 155.058 48.2686 155.345 48.2686 155.682C48.2686 156.019 43.4674 156.306 38.5912 156.306C33.715 156.306 29.7754 156.032 29.7754 155.682Z" fill="#5352EE"/>
</g>
<g style="mix-blend-mode:multiply" opacity="0.16">
<path d="M29.894 155.682C29.894 155.332 33.815 155.058 38.6349 155.058C43.4549 155.058 48.2499 155.345 48.2499 155.682C48.2499 156.019 43.4799 156.306 38.6349 156.306C33.79 156.306 29.894 156.032 29.894 155.682Z" fill="#5352EE"/>
</g>
<g style="mix-blend-mode:multiply" opacity="0.16">
<path d="M30.0127 155.682C30.0127 155.332 33.9086 155.058 38.7161 155.058C43.5236 155.058 48.2687 155.339 48.2687 155.682C48.2687 156.025 43.5299 156.306 38.7161 156.306C33.9024 156.306 30.0127 156.025 30.0127 155.682Z" fill="#5352EE"/>
</g>
<g style="mix-blend-mode:multiply" opacity="0.16">
<path d="M30.1311 155.682C30.1311 155.339 34.0021 155.058 38.7784 155.058C43.5546 155.058 48.2685 155.332 48.2685 155.682C48.2685 156.032 43.5609 156.306 38.7784 156.306C33.9958 156.306 30.1311 156.019 30.1311 155.682Z" fill="#5352EE"/>
</g>
<g style="mix-blend-mode:multiply" opacity="0.17">
<path d="M30.2498 155.682C30.2498 155.345 34.102 155.058 38.847 155.058C43.5921 155.058 48.2685 155.332 48.2685 155.682C48.2685 156.032 43.5859 156.306 38.847 156.306C34.1082 156.306 30.2498 156.019 30.2498 155.682Z" fill="#5352EE"/>
</g>
<g style="mix-blend-mode:multiply" opacity="0.17">
<path d="M30.3748 155.682C30.3748 155.345 34.1958 155.058 38.9096 155.058C43.6235 155.058 48.2749 155.326 48.2749 155.682C48.2749 156.038 43.6235 156.306 38.9096 156.306C34.1958 156.306 30.3748 156.013 30.3748 155.682Z" fill="#5352EE"/>
</g>
<g style="mix-blend-mode:multiply" opacity="0.17">
<path d="M30.4934 155.682C30.4934 155.351 34.2895 155.058 38.9721 155.058C43.6547 155.058 48.2686 155.326 48.2686 155.682C48.2686 156.038 43.6485 156.275 38.9721 156.275C34.2957 156.275 30.4934 156.007 30.4934 155.682Z" fill="#5352EE"/>
</g>
<g style="mix-blend-mode:multiply" opacity="0.17">
<path d="M30.6121 155.682C30.6121 155.351 34.3582 155.089 39.0345 155.089C43.7109 155.089 48.2687 155.351 48.2687 155.682C48.2687 156.013 43.6797 156.269 39.0345 156.269C34.3894 156.269 30.6121 156.007 30.6121 155.682Z" fill="#5352EE"/>
</g>
<g style="mix-blend-mode:multiply" opacity="0.18">
<path d="M30.7305 155.682C30.7305 155.357 34.4766 155.095 39.0968 155.095C43.7169 155.095 48.2685 155.357 48.2685 155.682C48.2685 156.006 43.7107 156.262 39.0968 156.262C34.4828 156.262 30.7305 156 30.7305 155.682Z" fill="#5352EE"/>
</g>
<g style="mix-blend-mode:multiply" opacity="0.18">
<path d="M30.8491 155.682C30.8491 155.363 34.5952 155.107 39.1592 155.107C43.7232 155.107 48.2685 155.363 48.2685 155.682C48.2685 156 43.7419 156.256 39.1592 156.256C34.5765 156.256 30.8491 155.994 30.8491 155.682Z" fill="#5352EE"/>
</g>
<g style="mix-blend-mode:multiply" opacity="0.18">
<path d="M30.9678 155.682C30.9678 155.364 34.6639 155.114 39.2217 155.114C43.7794 155.114 48.2685 155.364 48.2685 155.682C48.2685 156 43.7732 156.25 39.2217 156.25C34.6702 156.25 30.9678 155.994 30.9678 155.682Z" fill="#5352EE"/>
</g>
<g style="mix-blend-mode:multiply" opacity="0.19">
<path d="M31.0864 155.682C31.0864 155.37 34.7576 155.12 39.2841 155.12C43.8107 155.12 48.2685 155.37 48.2685 155.682C48.2685 155.994 43.8044 156.238 39.2841 156.238C34.7638 156.238 31.0864 155.988 31.0864 155.682Z" fill="#5352EE"/>
</g>
<g style="mix-blend-mode:multiply" opacity="0.19">
<path d="M31.2114 155.682C31.2114 155.376 34.8514 155.126 39.328 155.126C43.8046 155.126 48.2499 155.376 48.2499 155.682C48.2499 155.988 43.817 156.231 39.328 156.231C34.8389 156.231 31.2114 155.988 31.2114 155.682Z" fill="#5352EE"/>
</g>
<g style="mix-blend-mode:multiply" opacity="0.19">
<path d="M31.3301 155.682C31.3301 155.376 34.9451 155.132 39.4092 155.132C43.8733 155.132 48.2687 155.376 48.2687 155.682C48.2687 155.988 43.867 156.225 39.4092 156.225C34.9513 156.225 31.3301 155.981 31.3301 155.682Z" fill="#5352EE"/>
</g>
<g style="mix-blend-mode:multiply" opacity="0.19">
<path d="M31.4485 155.682C31.4485 155.382 35.0385 155.139 39.4714 155.139C43.9043 155.139 48.2685 155.382 48.2685 155.682C48.2685 155.982 43.898 156.219 39.4714 156.219C35.0447 156.219 31.4485 155.975 31.4485 155.682Z" fill="#5352EE"/>
</g>
<g style="mix-blend-mode:multiply" opacity="0.2">
<path d="M31.5547 155.682C31.5547 155.389 35.1197 155.151 39.5214 155.151C43.9231 155.151 48.2623 155.389 48.2623 155.682C48.2623 155.976 43.8918 156.213 39.5214 156.213C35.1509 156.213 31.5547 155.976 31.5547 155.682Z" fill="#5352EE"/>
</g>
<g style="mix-blend-mode:multiply" opacity="0.2">
<path d="M48.2685 155.682C48.2685 155.969 43.9605 156.206 39.5963 156.206C35.2321 156.206 31.6858 155.969 31.6858 155.682C31.6858 155.394 35.2259 155.157 39.5963 155.157C43.9668 155.157 48.2685 155.388 48.2685 155.682Z" fill="#5352EE"/>
</g>
</g>
<g style="mix-blend-mode:multiply" opacity="0.6">
<g style="mix-blend-mode:multiply" opacity="0.01">
<path d="M156.949 156.056C156.949 155.432 162.974 154.889 170.404 154.889C177.833 154.889 185.163 155.413 185.163 156.056C185.163 156.699 177.833 157.218 170.404 157.218C162.974 157.218 156.949 156.699 156.949 156.056Z" fill="#5352EE"/>
</g>
<g style="mix-blend-mode:multiply" opacity="0.01">
<path d="M157.086 156.056C157.086 155.432 163.08 154.895 170.479 154.895C177.877 154.895 185.163 155.413 185.163 156.056C185.163 156.699 177.871 157.211 170.479 157.211C163.086 157.211 157.086 156.693 157.086 156.056Z" fill="#5352EE"/>
</g>
<g style="mix-blend-mode:multiply" opacity="0.01">
<path d="M157.224 156.057C157.224 155.432 163.186 154.908 170.547 154.908C177.909 154.908 185.164 155.42 185.164 156.057C185.164 156.693 177.909 157.205 170.547 157.205C163.186 157.205 157.224 156.687 157.224 156.057Z" fill="#5352EE"/>
</g>
<g style="mix-blend-mode:multiply" opacity="0.01">
<path d="M157.361 156.057C157.361 155.432 163.292 154.914 170.616 154.914C177.94 154.914 185.163 155.426 185.163 156.057C185.163 156.687 177.94 157.193 170.616 157.193C163.292 157.193 157.361 156.687 157.361 156.057Z" fill="#5352EE"/>
</g>
<g style="mix-blend-mode:multiply" opacity="0.02">
<path d="M157.492 156.056C157.492 155.432 163.399 154.92 170.691 154.92C177.983 154.92 185.163 155.432 185.163 156.056C185.163 156.681 177.977 157.186 170.691 157.186C163.405 157.186 157.492 156.681 157.492 156.056Z" fill="#5352EE"/>
</g>
<g style="mix-blend-mode:multiply" opacity="0.02">
<path d="M157.63 156.056C157.63 155.432 163.511 154.933 170.741 154.933C177.971 154.933 185.145 155.432 185.145 156.056C185.145 156.681 178.015 157.155 170.785 157.155C163.555 157.155 157.63 156.675 157.63 156.056Z" fill="#5352EE"/>
</g>
<g style="mix-blend-mode:multiply" opacity="0.02">
<path d="M157.767 156.057C157.767 155.432 163.617 154.939 170.828 154.939C178.039 154.939 185.188 155.438 185.188 156.057C185.188 156.675 178.071 157.168 170.828 157.168C163.586 157.168 157.767 156.668 157.767 156.057Z" fill="#5352EE"/>
</g>
<g style="mix-blend-mode:multiply" opacity="0.03">
<path d="M157.904 156.056C157.904 155.432 163.723 154.945 170.903 154.945C178.083 154.945 185.163 155.444 185.163 156.056C185.163 156.668 178.083 157.155 170.903 157.155C163.723 157.155 157.904 156.668 157.904 156.056Z" fill="#5352EE"/>
</g>
<g style="mix-blend-mode:multiply" opacity="0.03">
<path d="M158.035 156.056C158.035 155.432 163.829 154.958 170.972 154.958C178.114 154.958 185.163 155.444 185.163 156.056C185.163 156.668 178.121 157.155 170.972 157.155C163.823 157.155 158.035 156.662 158.035 156.056Z" fill="#5352EE"/>
</g>
<g style="mix-blend-mode:multiply" opacity="0.03">
<path d="M158.173 156.056C158.173 155.432 163.936 154.964 171.047 154.964C178.158 154.964 185.164 155.451 185.164 156.056C185.164 156.662 178.152 157.155 171.047 157.155C163.942 157.155 158.173 156.656 158.173 156.056Z" fill="#5352EE"/>
</g>
<g style="mix-blend-mode:multiply" opacity="0.03">
<path d="M158.298 156.057C158.298 155.432 164.029 154.97 171.103 154.97C178.177 154.97 185.151 155.457 185.151 156.057C185.151 156.656 178.189 157.155 171.116 157.155C164.042 157.155 158.298 156.65 158.298 156.057Z" fill="#5352EE"/>
</g>
<g style="mix-blend-mode:multiply" opacity="0.04">
<path d="M158.448 156.056C158.448 155.463 164.148 154.982 171.184 154.982C178.221 154.982 185.163 155.463 185.163 156.056C185.163 156.649 178.221 157.155 171.184 157.155C164.148 157.155 158.448 156.649 158.448 156.056Z" fill="#5352EE"/>
</g>
<g style="mix-blend-mode:multiply" opacity="0.04">
<path d="M158.579 156.056C158.579 155.463 164.254 154.989 171.259 154.989C178.264 154.989 185.163 155.463 185.163 156.056C185.163 156.65 178.277 157.155 171.259 157.155C164.241 157.155 158.579 156.643 158.579 156.056Z" fill="#5352EE"/>
</g>
<g style="mix-blend-mode:multiply" opacity="0.04">
<path d="M158.716 156.057C158.716 155.47 164.335 154.995 171.328 154.995C178.321 154.995 185.164 155.47 185.164 156.057C185.164 156.643 178.296 157.112 171.328 157.112C164.36 157.112 158.716 156.637 158.716 156.057Z" fill="#5352EE"/>
</g>
<g style="mix-blend-mode:multiply" opacity="0.05">
<path d="M158.853 156.056C158.853 155.476 164.472 155.007 171.396 155.007C178.32 155.007 185.132 155.476 185.132 156.056C185.132 156.637 178.296 157.105 171.396 157.105C164.497 157.105 158.853 156.637 158.853 156.056Z" fill="#5352EE"/>
</g>
<g style="mix-blend-mode:multiply" opacity="0.05">
<path d="M158.991 156.056C158.991 155.482 164.579 155.014 171.478 155.014C178.377 155.014 185.17 155.482 185.17 156.056C185.17 156.631 178.371 157.099 171.478 157.099C164.585 157.099 158.991 156.631 158.991 156.056Z" fill="#5352EE"/>
</g>
<g style="mix-blend-mode:multiply" opacity="0.05">
<path d="M159.122 156.056C159.122 155.482 164.685 155.02 171.54 155.02C178.395 155.02 185.163 155.482 185.163 156.056C185.163 156.631 178.402 157.087 171.54 157.087C164.679 157.087 159.122 156.625 159.122 156.056Z" fill="#5352EE"/>
</g>
<g style="mix-blend-mode:multiply" opacity="0.05">
<path d="M159.259 156.057C159.259 155.488 164.791 155.026 171.615 155.026C178.439 155.026 185.164 155.488 185.164 156.057C185.164 156.625 178.433 157.08 171.615 157.08C164.797 157.08 159.259 156.618 159.259 156.057Z" fill="#5352EE"/>
</g>
<g style="mix-blend-mode:multiply" opacity="0.06">
<path d="M159.396 156.056C159.396 155.494 164.897 155.039 171.684 155.039C178.47 155.039 185.163 155.494 185.163 156.056C185.163 156.618 178.47 157.074 171.684 157.074C164.897 157.074 159.396 156.618 159.396 156.056Z" fill="#5352EE"/>
</g>
<g style="mix-blend-mode:multiply" opacity="0.06">
<path d="M159.546 156.056C159.546 155.494 165.016 155.045 171.765 155.045C178.514 155.045 185.176 155.494 185.176 156.056C185.176 156.618 178.52 157.062 171.765 157.062C165.009 157.062 159.546 156.612 159.546 156.056Z" fill="#5352EE"/>
</g>
<g style="mix-blend-mode:multiply" opacity="0.06">
<path d="M159.665 156.056C159.665 155.501 165.109 155.051 171.827 155.051C178.545 155.051 185.163 155.501 185.163 156.056C185.163 156.612 178.539 157.055 171.827 157.055C165.116 157.055 159.665 156.606 159.665 156.056Z" fill="#5352EE"/>
</g>
<g style="mix-blend-mode:multiply" opacity="0.06">
<path d="M159.802 156.056C159.802 155.507 165.215 155.063 171.896 155.063C178.576 155.063 185.163 155.507 185.163 156.056C185.163 156.606 178.576 157.049 171.896 157.049C165.215 157.049 159.802 156.599 159.802 156.056Z" fill="#5352EE"/>
</g>
<g style="mix-blend-mode:multiply" opacity="0.07">
<path d="M159.94 156.056C159.94 155.513 165.322 155.07 171.971 155.07C178.62 155.07 185.163 155.513 185.163 156.056C185.163 156.599 178.614 157.037 171.971 157.037C165.328 157.037 159.94 156.599 159.94 156.056Z" fill="#5352EE"/>
</g>
<g style="mix-blend-mode:multiply" opacity="0.07">
<path d="M160.077 156.056C160.077 155.513 165.434 155.076 172.04 155.076C178.645 155.076 185.151 155.513 185.151 156.056C185.151 156.6 178.633 157.03 172.04 157.03C165.447 157.03 160.077 156.593 160.077 156.056Z" fill="#5352EE"/>
</g>
<g style="mix-blend-mode:multiply" opacity="0.07">
<path d="M160.208 156.057C160.208 155.52 165.54 155.089 172.108 155.089C178.677 155.089 185.164 155.52 185.164 156.057C185.164 156.594 178.683 157.024 172.108 157.024C165.534 157.024 160.208 156.587 160.208 156.057Z" fill="#5352EE"/>
</g>
<g style="mix-blend-mode:multiply" opacity="0.08">
<path d="M160.345 156.056C160.345 155.526 165.646 155.095 172.208 155.095C178.77 155.095 185.188 155.526 185.188 156.056C185.188 156.587 178.745 157.011 172.208 157.011C165.671 157.011 160.345 156.587 160.345 156.056Z" fill="#5352EE"/>
</g>
<g style="mix-blend-mode:multiply" opacity="0.08">
<path d="M160.483 156.056C160.483 155.532 165.752 155.101 172.252 155.101C178.751 155.101 185.163 155.532 185.163 156.056C185.163 156.581 178.751 157.005 172.252 157.005C165.752 157.005 160.483 156.581 160.483 156.056Z" fill="#5352EE"/>
</g>
<g style="mix-blend-mode:multiply" opacity="0.08">
<path d="M160.62 156.057C160.62 155.532 165.859 155.114 172.321 155.114C178.783 155.114 185.164 155.532 185.164 156.057C185.164 156.581 178.789 156.999 172.321 156.999C165.852 156.999 160.62 156.575 160.62 156.057Z" fill="#5352EE"/>
</g>
<g style="mix-blend-mode:multiply" opacity="0.08">
<path d="M160.751 156.056C160.751 155.538 165.965 155.12 172.396 155.12C178.826 155.12 185.164 155.538 185.164 156.056C185.164 156.574 178.82 156.986 172.396 156.986C165.971 156.986 160.751 156.568 160.751 156.056Z" fill="#5352EE"/>
</g>
<g style="mix-blend-mode:multiply" opacity="0.09">
<path d="M160.889 156.056C160.889 155.544 166.071 155.126 172.464 155.126C178.857 155.126 185.163 155.544 185.163 156.056C185.163 156.568 178.857 156.98 172.464 156.98C166.071 156.98 160.889 156.568 160.889 156.056Z" fill="#5352EE"/>
</g>
<g style="mix-blend-mode:multiply" opacity="0.09">
<path d="M161.026 156.056C161.026 155.551 166.177 155.139 172.539 155.139C178.901 155.139 185.163 155.551 185.163 156.056C185.163 156.562 178.92 156.974 172.539 156.974C166.158 156.974 161.026 156.562 161.026 156.056Z" fill="#5352EE"/>
</g>
<g style="mix-blend-mode:multiply" opacity="0.09">
<path d="M161.163 156.057C161.163 155.551 166.283 155.145 172.608 155.145C178.932 155.145 185.163 155.551 185.163 156.057C185.163 156.562 178.92 156.962 172.608 156.962C166.295 156.962 161.163 156.531 161.163 156.057Z" fill="#5352EE"/>
</g>
<g style="mix-blend-mode:multiply" opacity="0.1">
<path d="M161.294 156.056C161.294 155.557 166.389 155.151 172.676 155.151C178.964 155.151 185.163 155.557 185.163 156.056C185.163 156.556 178.964 156.955 172.676 156.955C166.389 156.955 161.294 156.531 161.294 156.056Z" fill="#5352EE"/>
</g>
<g style="mix-blend-mode:multiply" opacity="0.1">
<path d="M161.419 156.056C161.419 155.563 166.489 155.164 172.739 155.164C178.989 155.164 185.151 155.563 185.151 156.056C185.151 156.55 178.989 156.949 172.739 156.949C166.489 156.949 161.419 156.531 161.419 156.056Z" fill="#5352EE"/>
</g>
<g style="mix-blend-mode:multiply" opacity="0.1">
<path d="M161.569 156.056C161.569 155.563 166.608 155.17 172.808 155.17C179.007 155.17 185.151 155.563 185.151 156.056C185.151 156.55 179.02 156.937 172.808 156.937C166.595 156.937 161.569 156.531 161.569 156.056Z" fill="#5352EE"/>
</g>
<g style="mix-blend-mode:multiply" opacity="0.1">
<path d="M161.707 156.057C161.707 155.57 166.701 155.176 172.889 155.176C179.076 155.176 185.163 155.57 185.163 156.057C185.163 156.544 179.07 156.931 172.889 156.931C166.708 156.931 161.707 156.531 161.707 156.057Z" fill="#5352EE"/>
</g>
<g style="mix-blend-mode:multiply" opacity="0.11">
<path d="M161.838 156.056C161.838 155.576 166.832 155.188 172.964 155.188C179.095 155.188 185.163 155.576 185.163 156.056C185.163 156.537 179.107 156.924 172.964 156.924C166.82 156.924 161.838 156.531 161.838 156.056Z" fill="#5352EE"/>
</g>
<g style="mix-blend-mode:multiply" opacity="0.11">
<path d="M161.975 156.056C161.975 155.582 166.926 155.195 173.032 155.195C179.138 155.195 185.163 155.582 185.163 156.056C185.163 156.531 179.138 156.912 173.032 156.912C166.926 156.912 161.975 156.531 161.975 156.056Z" fill="#5352EE"/>
</g>
<g style="mix-blend-mode:multiply" opacity="0.11">
<path d="M162.113 156.057C162.113 155.582 167.032 155.201 173.107 155.201C179.182 155.201 185.164 155.582 185.164 156.057C185.164 156.531 179.176 156.906 173.107 156.906C167.039 156.906 162.113 156.531 162.113 156.057Z" fill="#5352EE"/>
</g>
<g style="mix-blend-mode:multiply" opacity="0.12">
<path d="M162.25 156.056C162.25 155.588 167.138 155.213 173.176 155.213C179.213 155.213 185.163 155.588 185.163 156.056C185.163 156.524 179.213 156.899 173.176 156.899C167.138 156.899 162.25 156.531 162.25 156.056Z" fill="#5352EE"/>
</g>
<g style="mix-blend-mode:multiply" opacity="0.12">
<path d="M162.381 156.056C162.381 155.594 167.245 155.22 173.245 155.22C179.245 155.22 185.163 155.594 185.163 156.056C185.163 156.518 179.245 156.887 173.245 156.887C167.245 156.887 162.381 156.531 162.381 156.056Z" fill="#5352EE"/>
</g>
<g style="mix-blend-mode:multiply" opacity="0.12">
<path d="M162.518 156.056C162.518 155.601 167.351 155.226 173.32 155.226C179.288 155.226 185.182 155.601 185.182 156.056C185.182 156.512 179.301 156.881 173.32 156.881C167.338 156.881 162.518 156.531 162.518 156.056Z" fill="#5352EE"/>
</g>
<g style="mix-blend-mode:multiply" opacity="0.12">
<path d="M162.668 156.056C162.668 155.6 167.476 155.238 173.401 155.238C179.326 155.238 185.176 155.6 185.176 156.056C185.176 156.512 179.332 156.874 173.401 156.874C167.469 156.874 162.668 156.531 162.668 156.056Z" fill="#5352EE"/>
</g>
<g style="mix-blend-mode:multiply" opacity="0.13">
<path d="M162.793 156.056C162.793 155.607 167.569 155.245 173.457 155.245C179.344 155.245 185.163 155.607 185.163 156.056C185.163 156.506 179.351 156.862 173.457 156.862C167.563 156.862 162.793 156.531 162.793 156.056Z" fill="#5352EE"/>
</g>
<g style="mix-blend-mode:multiply" opacity="0.13">
<path d="M162.924 156.056C162.924 155.613 167.675 155.251 173.538 155.251C179.401 155.251 185.17 155.613 185.17 156.056C185.17 156.5 179.394 156.856 173.538 156.856C167.682 156.856 162.924 156.531 162.924 156.056Z" fill="#5352EE"/>
</g>
<g style="mix-blend-mode:multiply" opacity="0.13">
<path d="M163.062 156.057C163.062 155.613 167.782 155.264 173.601 155.264C179.419 155.264 185.164 155.613 185.164 156.057C185.164 156.5 179.426 156.85 173.601 156.85C167.775 156.85 163.062 156.494 163.062 156.057Z" fill="#5352EE"/>
</g>
<g style="mix-blend-mode:multiply" opacity="0.14">
<path d="M163.199 156.056C163.199 155.619 167.888 155.27 173.675 155.27C179.463 155.27 185.163 155.619 185.163 156.056C185.163 156.493 179.457 156.843 173.675 156.843C167.894 156.843 163.199 156.487 163.199 156.056Z" fill="#5352EE"/>
</g>
<g style="mix-blend-mode:multiply" opacity="0.14">
<path d="M163.336 156.056C163.336 155.626 167.994 155.276 173.744 155.276C179.494 155.276 185.163 155.626 185.163 156.056C185.163 156.487 179.494 156.831 173.744 156.831C167.994 156.831 163.336 156.481 163.336 156.056Z" fill="#5352EE"/>
</g>
<g style="mix-blend-mode:multiply" opacity="0.14">
<path d="M163.467 156.057C163.467 155.632 168.1 155.289 173.813 155.289C179.526 155.289 185.163 155.632 185.163 156.057C185.163 156.481 179.544 156.824 173.813 156.824C168.081 156.824 163.467 156.481 163.467 156.057Z" fill="#5352EE"/>
</g>
<g style="mix-blend-mode:multiply" opacity="0.14">
<path d="M163.605 156.056C163.605 155.632 168.206 155.294 173.888 155.294C179.569 155.294 185.164 155.632 185.164 156.056C185.164 156.481 179.544 156.818 173.888 156.818C168.231 156.818 163.605 156.474 163.605 156.056Z" fill="#5352EE"/>
</g>
<g style="mix-blend-mode:multiply" opacity="0.15">
<path d="M163.742 156.056C163.742 155.638 168.312 155.301 173.956 155.301C179.6 155.301 185.163 155.638 185.163 156.056C185.163 156.475 179.6 156.805 173.956 156.805C168.312 156.805 163.742 156.468 163.742 156.056Z" fill="#5352EE"/>
</g>
<g style="mix-blend-mode:multiply" opacity="0.15">
<path d="M163.879 156.056C163.879 155.644 168.425 155.313 174.025 155.313C179.625 155.313 185.163 155.644 185.163 156.056C185.163 156.469 179.632 156.799 174.025 156.799C168.418 156.799 163.879 156.469 163.879 156.056Z" fill="#5352EE"/>
</g>
<g style="mix-blend-mode:multiply" opacity="0.15">
<path d="M164.01 156.057C164.01 155.651 168.531 155.32 174.1 155.32C179.669 155.32 185.163 155.651 185.163 156.057C185.163 156.462 179.669 156.793 174.1 156.793C168.531 156.793 164.01 156.462 164.01 156.057Z" fill="#5352EE"/>
</g>
<g style="mix-blend-mode:multiply" opacity="0.15">
<path d="M164.148 156.056C164.148 155.65 168.637 155.326 174.169 155.326C179.7 155.326 185.163 155.65 185.163 156.056C185.163 156.462 179.707 156.78 174.169 156.78C168.631 156.78 164.148 156.456 164.148 156.056Z" fill="#5352EE"/>
</g>
<g style="mix-blend-mode:multiply" opacity="0.16">
<path d="M164.285 156.056C164.285 155.657 168.743 155.332 174.275 155.332C179.806 155.332 185.195 155.657 185.195 156.056C185.195 156.456 179.769 156.774 174.275 156.774C168.78 156.774 164.285 156.45 164.285 156.056Z" fill="#5352EE"/>
</g>
<g style="mix-blend-mode:multiply" opacity="0.16">
<path d="M164.423 156.056C164.423 155.663 168.849 155.345 174.312 155.345C179.775 155.345 185.164 155.663 185.164 156.056C185.164 156.45 179.775 156.768 174.312 156.768C168.849 156.768 164.423 156.45 164.423 156.056Z" fill="#5352EE"/>
</g>
<g style="mix-blend-mode:multiply" opacity="0.16">
<path d="M164.541 156.057C164.541 155.669 168.943 155.351 174.369 155.351C179.794 155.351 185.151 155.669 185.151 156.057C185.151 156.444 179.8 156.756 174.369 156.756C168.937 156.756 164.541 156.444 164.541 156.057Z" fill="#5352EE"/>
</g>
<g style="mix-blend-mode:multiply" opacity="0.17">
<path d="M164.691 156.056C164.691 155.669 169.061 155.357 174.456 155.357C179.85 155.357 185.163 155.669 185.163 156.056C185.163 156.443 179.844 156.749 174.456 156.749C169.068 156.749 164.691 156.437 164.691 156.056Z" fill="#5352EE"/>
</g>
<g style="mix-blend-mode:multiply" opacity="0.17">
<path d="M164.828 156.056C164.828 155.676 169.199 155.37 174.525 155.37C179.85 155.37 185.138 155.676 185.138 156.056C185.138 156.437 179.856 156.743 174.525 156.743C169.193 156.743 164.828 156.431 164.828 156.056Z" fill="#5352EE"/>
</g>
<g style="mix-blend-mode:multiply" opacity="0.17">
<path d="M164.966 156.057C164.966 155.682 169.274 155.376 174.593 155.376C179.913 155.376 185.164 155.682 185.164 156.057C185.164 156.431 179.919 156.731 174.593 156.731C169.268 156.731 164.966 156.431 164.966 156.057Z" fill="#5352EE"/>
</g>
<g style="mix-blend-mode:multiply" opacity="0.17">
<path d="M165.097 156.057C165.097 155.682 169.38 155.382 174.668 155.382C179.956 155.382 185.164 155.682 185.164 156.057C185.164 156.431 179.95 156.725 174.668 156.725C169.386 156.725 165.097 156.425 165.097 156.057Z" fill="#5352EE"/>
</g>
<g style="mix-blend-mode:multiply" opacity="0.18">
<path d="M165.234 156.056C165.234 155.688 169.492 155.395 174.737 155.395C179.981 155.395 185.163 155.688 185.163 156.056C185.163 156.425 179.988 156.718 174.737 156.718C169.486 156.718 165.234 156.418 165.234 156.056Z" fill="#5352EE"/>
</g>
<g style="mix-blend-mode:multiply" opacity="0.18">
<path d="M165.372 156.056C165.372 155.694 169.598 155.401 174.812 155.401C180.025 155.401 185.163 155.694 185.163 156.056C185.163 156.419 180.025 156.681 174.812 156.681C169.598 156.681 165.372 156.412 165.372 156.056Z" fill="#5352EE"/>
</g>
<g style="mix-blend-mode:multiply" opacity="0.18">
<path d="M165.509 156.056C165.509 155.701 169.704 155.432 174.874 155.432C180.044 155.432 185.157 155.726 185.157 156.056C185.157 156.387 180.05 156.681 174.874 156.681C169.698 156.681 165.509 156.412 165.509 156.056Z" fill="#5352EE"/>
</g>
<g style="mix-blend-mode:multiply" opacity="0.19">
<path d="M165.64 156.056C165.64 155.701 169.811 155.432 174.949 155.432C180.088 155.432 185.164 155.713 185.164 156.056C185.164 156.4 180.094 156.681 174.949 156.681C169.805 156.681 165.64 156.406 165.64 156.056Z" fill="#5352EE"/>
</g>
<g style="mix-blend-mode:multiply" opacity="0.19">
<path d="M165.79 156.056C165.79 155.707 169.929 155.432 175.036 155.432C180.144 155.432 185.176 155.713 185.176 156.056C185.176 156.4 180.137 156.681 175.036 156.681C169.935 156.681 165.79 156.4 165.79 156.056Z" fill="#5352EE"/>
</g>
<g style="mix-blend-mode:multiply" opacity="0.19">
<path d="M165.915 156.056C165.915 155.713 170.023 155.432 175.093 155.432C180.162 155.432 185.163 155.713 185.163 156.056C185.163 156.4 180.169 156.681 175.093 156.681C170.017 156.681 165.915 156.4 165.915 156.056Z" fill="#5352EE"/>
</g>
<g style="mix-blend-mode:multiply" opacity="0.19">
<path d="M166.052 156.056C166.052 155.719 170.129 155.432 175.167 155.432C180.206 155.432 185.157 155.707 185.157 156.056C185.157 156.406 180.194 156.681 175.167 156.681C170.141 156.681 166.052 156.394 166.052 156.056Z" fill="#5352EE"/>
</g>
<g style="mix-blend-mode:multiply" opacity="0.2">
<path d="M166.183 156.056C166.183 155.719 170.235 155.432 175.236 155.432C180.237 155.432 185.163 155.701 185.163 156.056C185.163 156.412 180.231 156.681 175.236 156.681C170.241 156.681 166.183 156.387 166.183 156.056Z" fill="#5352EE"/>
</g>
<g style="mix-blend-mode:multiply" opacity="0.2">
<path d="M185.145 156.056C185.145 156.381 180.25 156.65 175.286 156.65C170.323 156.65 166.302 156.381 166.302 156.056C166.302 155.732 170.323 155.432 175.286 155.432C180.25 155.432 185.145 155.726 185.145 156.056Z" fill="#5352EE"/>
</g>
</g>
<path d="M50.9096 127.342C50.9096 127.996 50.7159 128.634 50.353 129.177C49.99 129.72 49.4742 130.144 48.8707 130.394C48.2672 130.644 47.6031 130.709 46.9624 130.582C46.3217 130.454 45.7332 130.14 45.2713 129.678C44.8094 129.216 44.4949 128.627 44.3674 127.987C44.24 127.346 44.3054 126.682 44.5554 126.078C44.8053 125.475 45.2287 124.959 45.7718 124.596C46.315 124.233 46.9535 124.04 47.6068 124.04C48.0407 124.039 48.4706 124.124 48.8717 124.289C49.2727 124.455 49.6372 124.698 49.944 125.005C50.2509 125.312 50.4941 125.676 50.6598 126.077C50.8255 126.479 50.9104 126.908 50.9096 127.342Z" fill="url(#paint0_linear_128_18660)"/>
<path d="M47.6317 130.389C47.0276 130.389 46.437 130.21 45.9348 129.874C45.4326 129.539 45.0413 129.061 44.8104 128.503C44.5795 127.945 44.5194 127.331 44.6377 126.738C44.756 126.146 45.0474 125.602 45.475 125.175C45.9026 124.748 46.4472 124.458 47.0399 124.341C47.6325 124.224 48.2466 124.285 48.8044 124.517C49.3621 124.749 49.8385 125.142 50.1733 125.645C50.508 126.148 50.686 126.738 50.6847 127.343C50.6831 128.151 50.3607 128.926 49.7883 129.497C49.2159 130.069 48.4403 130.389 47.6317 130.389Z" fill="#7AA4D6"/>
<path d="M40.1519 122.791C50.931 122.791 59.6691 114.053 59.6691 103.274C59.6691 92.4945 50.931 83.7563 40.1519 83.7563C29.3729 83.7563 20.6348 92.4945 20.6348 103.274C20.6348 114.053 29.3729 122.791 40.1519 122.791Z" fill="url(#paint1_linear_128_18660)"/>
<path d="M41.2157 122.513C51.8405 121.923 59.975 112.831 59.3847 102.207C58.7944 91.5819 49.7028 83.4473 39.0781 84.0376C28.4534 84.6279 20.3189 93.7195 20.9092 104.344C21.4994 114.969 30.591 123.103 41.2157 122.513Z" fill="#00AFC9"/>
<path d="M47.9876 126.986C47.9532 126.951 47.912 126.922 47.8664 126.903C47.8208 126.883 47.7718 126.874 47.7222 126.874C47.6727 126.874 47.6236 126.883 47.578 126.903C47.5324 126.922 47.4912 126.951 47.4569 126.986L40.6577 133.786V103.692L45.5339 98.8157C45.6266 98.7192 45.6784 98.5905 45.6784 98.4567C45.6784 98.3229 45.6266 98.1942 45.5339 98.0977C45.4392 98.0039 45.3113 97.9513 45.178 97.9513C45.0447 97.9513 44.9168 98.0039 44.8221 98.0977L40.6577 102.262V92.5472C40.6577 92.4131 40.6044 92.2845 40.5096 92.1896C40.4147 92.0948 40.2861 92.0415 40.152 92.0415C40.0179 92.0415 39.8892 92.0948 39.7944 92.1896C39.6995 92.2845 39.6463 92.4131 39.6463 92.5472V113.557L33.7399 107.65C33.6951 107.596 33.6394 107.551 33.5764 107.519C33.5133 107.488 33.4443 107.469 33.3738 107.466C33.3033 107.463 33.2328 107.474 33.167 107.499C33.1011 107.525 33.0413 107.564 32.9914 107.613C32.9415 107.663 32.9026 107.723 32.8771 107.789C32.8517 107.855 32.8404 107.925 32.8439 107.996C32.8473 108.066 32.8655 108.135 32.8973 108.198C32.929 108.262 32.9736 108.317 33.0281 108.362L39.6463 114.98V136.995C39.6463 137.129 39.6995 137.257 39.7944 137.352C39.8892 137.447 40.0179 137.5 40.152 137.5C40.2861 137.5 40.4147 137.447 40.5096 137.352C40.6044 137.257 40.6577 137.129 40.6577 136.995V134.853L47.9876 127.517C48.0233 127.483 48.0516 127.441 48.071 127.396C48.0904 127.35 48.1004 127.301 48.1004 127.252C48.1004 127.202 48.0904 127.153 48.071 127.108C48.0516 127.062 48.0233 127.021 47.9876 126.986Z" fill="#7AA4D6"/>
<path d="M48.2684 155.681H31.6857L29.1633 136.995H50.7908L48.2684 155.681Z" fill="#7AA4D6"/>
<path d="M177.222 142.302C176.185 142.633 175.08 142.633 174.369 141.677C173.788 140.897 173.601 139.898 173.195 139.018C171.715 135.796 167.463 134.241 166.689 130.783C166.302 129.078 166.889 127.324 167.313 125.632C167.738 123.94 167.994 122.017 167.045 120.549C166.471 119.657 165.528 119.07 164.847 118.252C164.308 117.526 163.924 116.697 163.718 115.816C163.511 114.936 163.488 114.022 163.648 113.132C164.023 110.41 165.759 108.275 164.853 105.453C164.398 104.029 163.199 102.993 162.319 101.788C160.983 99.9584 160.377 95.8501 163.28 95.0635C164.529 94.7138 165.902 95.4506 166.67 96.512C167.366 97.6222 167.804 98.8747 167.95 100.177C168.096 101.47 168.439 102.734 168.968 103.923C170.841 107.476 175.836 108.293 177.946 111.709C179.432 114.106 179.101 117.172 178.533 119.931C177.965 122.691 177.203 125.55 177.977 128.273C178.814 131.226 181.393 133.642 181.48 136.708C181.487 137.685 181.239 138.646 180.76 139.498C180.282 140.35 179.589 141.062 178.752 141.565C178.272 141.869 177.758 142.116 177.222 142.302Z" fill="url(#paint2_linear_128_18660)"/>
<mask id="mask0_128_18660" style="mask-type:luminance" maskUnits="userSpaceOnUse" x="161" y="94" width="21" height="49">
<path d="M177.222 142.302C176.185 142.633 175.08 142.633 174.369 141.677C173.788 140.897 173.601 139.898 173.195 139.018C171.715 135.796 167.463 134.241 166.689 130.783C166.302 129.078 166.889 127.324 167.313 125.632C167.738 123.94 167.994 122.017 167.045 120.549C166.471 119.657 165.528 119.07 164.847 118.252C164.308 117.526 163.924 116.697 163.718 115.816C163.511 114.936 163.488 114.022 163.648 113.132C164.023 110.41 165.759 108.275 164.853 105.453C164.398 104.029 163.199 102.993 162.319 101.788C160.983 99.9584 160.377 95.8501 163.28 95.0635C164.529 94.7138 165.902 95.4506 166.67 96.512C167.366 97.6222 167.804 98.8747 167.95 100.177C168.096 101.47 168.439 102.734 168.968 103.923C170.841 107.476 175.836 108.293 177.946 111.709C179.432 114.106 179.101 117.172 178.533 119.931C177.965 122.691 177.203 125.55 177.977 128.273C178.814 131.226 181.393 133.642 181.48 136.708C181.487 137.685 181.239 138.646 180.76 139.498C180.282 140.35 179.589 141.062 178.752 141.565C178.272 141.869 177.758 142.116 177.222 142.302Z" fill="white"/>
</mask>
<g mask="url(#mask0_128_18660)">
<path d="M177.222 142.302C176.185 142.633 175.08 142.633 174.369 141.677C173.788 140.897 173.601 139.898 173.195 139.018C171.715 135.796 167.463 134.241 166.689 130.783C166.302 129.078 166.889 127.324 167.313 125.632C167.738 123.94 167.994 122.017 167.045 120.549C166.471 119.657 165.528 119.07 164.847 118.252C164.308 117.526 163.924 116.697 163.718 115.816C163.511 114.936 163.488 114.022 163.648 113.132C164.023 110.41 165.759 108.275 164.853 105.453C164.398 104.029 163.199 102.993 162.319 101.788C160.983 99.9584 160.377 95.8501 163.28 95.0635C164.529 94.7138 165.902 95.4506 166.67 96.512C167.366 97.6222 167.804 98.8747 167.95 100.177C168.096 101.47 168.439 102.734 168.968 103.923C170.841 107.476 175.836 108.293 177.946 111.709C179.432 114.106 179.101 117.172 178.533 119.931C177.965 122.691 177.203 125.55 177.977 128.273C178.814 131.226 181.393 133.642 181.48 136.708C181.487 137.685 181.239 138.646 180.76 139.498C180.282 140.35 179.589 141.062 178.752 141.565C178.272 141.869 177.758 142.116 177.222 142.302Z" fill="url(#paint3_linear_128_18660)"/>
<path d="M176.067 142.246C175.777 142.26 175.488 142.202 175.227 142.076C174.965 141.951 174.739 141.762 174.568 141.528C174.237 141.025 173.98 140.476 173.807 139.898C173.688 139.574 173.569 139.236 173.42 138.912C172.733 137.407 171.459 136.258 170.229 135.166C168.743 133.823 167.338 132.562 166.933 130.745C166.614 129.316 167.008 127.817 167.395 126.375L167.563 125.751C167.944 124.271 168.319 122.111 167.264 120.469C166.898 119.95 166.466 119.482 165.977 119.076C165.649 118.787 165.341 118.476 165.053 118.146C164.534 117.449 164.164 116.652 163.966 115.806C163.769 114.959 163.748 114.081 163.905 113.226C164.055 112.318 164.293 111.428 164.616 110.566C165.153 108.98 165.709 107.345 165.097 105.434C164.703 104.43 164.116 103.514 163.368 102.737C163.087 102.4 162.787 102.05 162.531 101.694C162.051 101.011 161.726 100.232 161.578 99.41C161.43 98.5883 161.463 97.7442 161.676 96.9368C161.795 96.5509 162.013 96.2027 162.307 95.9259C162.602 95.6491 162.963 95.4532 163.355 95.3572C163.545 95.3069 163.74 95.2817 163.936 95.2822C164.439 95.3125 164.929 95.457 165.368 95.7047C165.807 95.9524 166.184 96.2969 166.471 96.712C167.152 97.79 167.579 99.0092 167.719 100.277L167.782 100.627C167.927 101.836 168.258 103.015 168.762 104.123C169.755 105.996 171.622 107.164 173.426 108.275C175.068 109.286 176.766 110.329 177.753 111.921C179.214 114.287 178.851 117.309 178.308 119.963C178.252 120.237 178.19 120.512 178.133 120.793C177.597 123.291 177.041 125.925 177.753 128.423C178.163 129.673 178.725 130.868 179.426 131.982C180.337 133.574 181.199 135.103 181.249 136.795C181.249 137.727 181.008 138.642 180.551 139.454C180.094 140.265 179.436 140.945 178.639 141.428C178.174 141.714 177.677 141.946 177.159 142.121C176.803 142.215 176.435 142.258 176.067 142.246Z" fill="#00AFC9"/>
</g>
<path d="M172.932 140.385C171.927 139.549 171.219 138.41 170.916 137.138C170.549 135.419 170.751 133.626 171.49 132.031C172.015 130.845 172.77 129.746 173.082 128.485C174.05 124.589 170.853 121.355 170.16 117.721C169.43 113.869 171.684 111.209 174.006 108.493C176.185 105.958 177.315 103.58 176.741 100.227C176.094 96.958 176.75 93.5656 178.57 90.7742C179.769 89.001 181.424 87.5463 182.447 85.667C183.896 83.0135 183.128 80.5161 183.534 77.719C183.865 75.384 185.725 73.3486 188.148 74.4849C188.771 74.813 189.315 75.2737 189.741 75.8346C190.167 76.3955 190.465 77.043 190.614 77.7315C191.035 79.4237 190.906 81.206 190.246 82.82C189.815 83.8002 189.265 84.7367 188.909 85.7482C187.186 90.6556 191.806 95.6379 189.041 100.389C188.422 101.311 187.757 102.201 187.049 103.055C186.103 104.423 185.717 106.1 185.969 107.744C186.2 110.004 187.149 112.114 187.873 114.256C188.597 116.398 189.122 118.764 188.41 120.924C187.636 123.347 185.644 125.039 184.383 127.168C182.004 131.195 185.532 136.308 181.424 139.542C179.663 140.928 176.173 142.002 174.062 141.066C173.656 140.892 173.276 140.663 172.932 140.385Z" fill="url(#paint4_linear_128_18660)"/>
<path d="M175.942 141.178C175.332 141.193 174.726 141.08 174.162 140.847C173.778 140.678 173.419 140.457 173.095 140.192C172.131 139.386 171.452 138.292 171.159 137.07C170.806 135.406 171.003 133.673 171.721 132.131C171.896 131.725 172.108 131.32 172.314 130.933C172.743 130.177 173.082 129.375 173.326 128.541C173.95 126.044 172.895 123.765 171.877 121.586C171.228 120.345 170.735 119.028 170.41 117.665C169.698 113.919 171.983 111.234 174.2 108.65C176.697 105.721 177.521 103.268 176.991 100.183C176.351 96.9774 176.995 93.6485 178.783 90.9117C179.298 90.1734 179.855 89.4647 180.45 88.7889C181.289 87.8629 182.034 86.8547 182.672 85.7796C183.646 83.9877 183.646 82.3082 183.646 80.5225C183.625 79.5964 183.671 78.6699 183.784 77.7504C184.021 76.0897 185.132 74.4102 186.799 74.4102C187.233 74.4162 187.659 74.5186 188.048 74.7098C188.638 75.0206 189.153 75.4574 189.555 75.9894C189.958 76.5213 190.238 77.1354 190.377 77.7879C190.784 79.424 190.66 81.1474 190.021 82.7078C189.859 83.0824 189.671 83.4507 189.496 83.8129C189.185 84.4196 188.912 85.0452 188.679 85.6859C187.854 88.0272 188.435 90.3873 188.997 92.6661C189.621 95.3134 190.246 97.817 188.828 100.283C188.476 100.853 188.079 101.393 187.642 101.9C187.38 102.225 187.105 102.562 186.855 102.905C185.878 104.326 185.476 106.064 185.732 107.769C185.979 109.499 186.441 111.191 187.105 112.808C187.286 113.307 187.474 113.825 187.648 114.337C188.273 116.21 188.897 118.602 188.179 120.843C187.637 122.272 186.84 123.59 185.825 124.733C185.226 125.468 184.676 126.242 184.177 127.049C183.103 128.878 183.19 130.895 183.278 132.843C183.39 135.297 183.49 137.613 181.28 139.355C179.728 140.493 177.865 141.129 175.942 141.178Z" fill="#5352EE"/>
<path d="M186.887 81.1531C186.838 81.1442 186.788 81.145 186.739 81.1556C186.691 81.1661 186.645 81.1862 186.604 81.2147C186.564 81.2432 186.529 81.2794 186.502 81.3214C186.476 81.3633 186.458 81.4101 186.45 81.4591L183.022 100.339L181.399 93.8337C181.388 93.7852 181.367 93.7394 181.338 93.699C181.309 93.6587 181.272 93.6247 181.229 93.599C181.187 93.5733 181.14 93.5566 181.09 93.5497C181.041 93.5428 180.991 93.546 180.943 93.559C180.895 93.5707 180.85 93.5918 180.81 93.621C180.77 93.6503 180.736 93.6872 180.711 93.7296C180.685 93.772 180.668 93.819 180.661 93.8679C180.654 93.9169 180.656 93.9668 180.668 94.0147L182.716 102.131L177.721 129.753L176.104 118.346C176.098 118.296 176.082 118.249 176.057 118.206C176.033 118.163 175.999 118.126 175.96 118.096C175.92 118.066 175.875 118.045 175.827 118.033C175.779 118.021 175.729 118.019 175.68 118.027C175.581 118.041 175.491 118.094 175.43 118.173C175.37 118.252 175.343 118.353 175.355 118.452L177.297 132.113L176.167 138.325C176.158 138.374 176.159 138.424 176.169 138.472C176.18 138.521 176.2 138.567 176.228 138.607C176.257 138.648 176.293 138.683 176.335 138.709C176.377 138.736 176.424 138.754 176.473 138.762H176.541C176.63 138.763 176.716 138.732 176.784 138.675C176.851 138.617 176.896 138.537 176.91 138.45L180.337 119.569L184.489 112.87C184.543 112.785 184.561 112.682 184.538 112.583C184.516 112.485 184.456 112.4 184.371 112.346C184.284 112.294 184.181 112.278 184.083 112.302C183.985 112.325 183.9 112.386 183.846 112.471L180.724 117.54L187.193 81.6089C187.204 81.5588 187.204 81.5071 187.195 81.4567C187.185 81.4064 187.165 81.3585 187.137 81.3159C187.108 81.2734 187.071 81.237 187.028 81.209C186.985 81.1811 186.937 81.1621 186.887 81.1531Z" fill="white"/>
<path d="M186.2 135.983H167.669L168.681 156.056H185.188L186.2 135.983Z" fill="#7AA4D6"/>
<mask id="mask1_128_18660" style="mask-type:luminance" maskUnits="userSpaceOnUse" x="1" y="18" width="32" height="32">
<path d="M17.3944 18.8677C14.3159 18.8677 11.3066 19.7805 8.74692 21.4909C6.18726 23.2012 4.19225 25.6321 3.01417 28.4762C1.83609 31.3204 1.52785 34.45 2.12843 37.4693C2.72901 40.4886 4.21143 43.2621 6.38824 45.4389C8.56505 47.6157 11.3385 49.0981 14.3578 49.6987C17.3771 50.2993 20.5067 49.991 23.3509 48.8129C26.195 47.6349 28.6259 45.6398 30.3362 43.0802C32.0466 40.5205 32.9594 37.5112 32.9594 34.4327C32.9578 30.3051 31.3174 26.3471 28.3987 23.4284C25.4801 20.5098 21.522 18.8693 17.3944 18.8677ZM17.3944 41.8188C15.9336 41.8188 14.5055 41.3856 13.2909 40.574C12.0763 39.7624 11.1296 38.6089 10.5706 37.2592C10.0115 35.9096 9.86526 34.4245 10.1503 32.9918C10.4352 31.559 11.1387 30.2429 12.1717 29.21C13.2046 28.177 14.5207 27.4736 15.9534 27.1886C17.3862 26.9036 18.8713 27.0499 20.2209 27.6089C21.5705 28.1679 22.7241 29.1146 23.5357 30.3292C24.3473 31.5439 24.7804 32.9719 24.7804 34.4327C24.7788 36.3911 24.0001 38.2688 22.6153 39.6536C21.2305 41.0384 19.3528 41.8171 17.3944 41.8188Z" fill="white"/>
</mask>
<g mask="url(#mask1_128_18660)">
<path d="M33.6525 18.1748H1.13013V34.4329H33.6525V18.1748Z" fill="#7AA4D6"/>
<path d="M33.6525 34.4331H1.13013V50.6912H33.6525V34.4331Z" fill="#00AFC9"/>
</g>
<path d="M189.571 38.2787H89.2757C88.6658 38.277 88.0814 38.0336 87.6507 37.6017C87.22 37.1698 86.9781 36.5848 86.9781 35.9748V17.7501C86.9726 17.1598 87.1957 16.5902 87.6007 16.1608C88.0057 15.7313 88.5612 15.4752 89.1509 15.4462H189.446C189.758 15.4337 190.069 15.4838 190.362 15.5935C190.654 15.7033 190.921 15.8705 191.147 16.0853C191.374 16.3001 191.555 16.558 191.68 16.844C191.805 17.1299 191.871 17.438 191.875 17.7501V35.9748C191.875 36.5859 191.632 37.1719 191.2 37.6039C190.768 38.036 190.182 38.2787 189.571 38.2787Z" fill="url(#paint5_linear_128_18660)"/>
<path d="M191.644 35.9812V17.7564C191.644 16.6116 190.716 15.6836 189.571 15.6836L89.2759 15.6836C88.1311 15.6836 87.2031 16.6116 87.2031 17.7564V35.9812C87.2031 37.126 88.1311 38.0541 89.2759 38.0541L189.571 38.0541C190.716 38.0541 191.644 37.126 191.644 35.9812Z" fill="#00AFC9"/>
<path d="M99.6088 33.996C98.1986 33.996 96.8201 33.5778 95.6476 32.7944C94.475 32.0109 93.5612 30.8973 93.0215 29.5945C92.4818 28.2916 92.3407 26.858 92.6158 25.4749C92.8909 24.0918 93.5699 22.8214 94.5671 21.8242C95.5643 20.827 96.8347 20.148 98.2178 19.8728C99.6009 19.5977 101.035 19.7389 102.337 20.2786C103.64 20.8182 104.754 21.7321 105.537 22.9047C106.321 24.0772 106.739 25.4557 106.739 26.8659C106.736 28.7559 105.983 30.5676 104.647 31.904C103.31 33.2404 101.499 33.9927 99.6088 33.996Z" fill="white"/>
<path d="M152.985 25.305H113.969C113.811 25.3167 113.651 25.2956 113.502 25.243C113.352 25.1904 113.214 25.1074 113.098 24.9993C112.982 24.8912 112.889 24.7603 112.825 24.6147C112.762 24.469 112.729 24.3119 112.729 24.1531C112.729 23.9943 112.762 23.8371 112.825 23.6915C112.889 23.5459 112.982 23.415 113.098 23.3069C113.214 23.1988 113.352 23.1158 113.502 23.0632C113.651 23.0106 113.811 22.9895 113.969 23.0012H152.96C153.25 23.0226 153.522 23.1533 153.721 23.3669C153.919 23.5806 154.03 23.8614 154.03 24.1531C154.03 24.4447 153.919 24.7256 153.721 24.9393C153.522 25.1529 153.25 25.2836 152.96 25.305H152.985Z" fill="white"/>
<path d="M185.145 25.305H158.21C157.919 25.2836 157.647 25.1529 157.449 24.9393C157.25 24.7256 157.14 24.4447 157.14 24.1531C157.14 23.8614 157.25 23.5806 157.449 23.3669C157.647 23.1533 157.919 23.0226 158.21 23.0012H185.145C185.303 22.9895 185.462 23.0106 185.612 23.0632C185.762 23.1158 185.899 23.1988 186.016 23.3069C186.132 23.415 186.225 23.5459 186.288 23.6915C186.352 23.8371 186.385 23.9943 186.385 24.1531C186.385 24.3119 186.352 24.469 186.288 24.6147C186.225 24.7603 186.132 24.8912 186.016 24.9993C185.899 25.1074 185.762 25.1904 185.612 25.243C185.462 25.2956 185.303 25.3167 185.145 25.305Z" fill="white"/>
<path d="M127.911 31.1112H113.969C113.811 31.1228 113.651 31.1017 113.502 31.0491C113.352 30.9965 113.214 30.9136 113.098 30.8055C112.982 30.6974 112.889 30.5664 112.825 30.4208C112.762 30.2752 112.729 30.1181 112.729 29.9592C112.729 29.8004 112.762 29.6433 112.825 29.4977C112.889 29.3521 112.982 29.2211 113.098 29.113C113.214 29.0049 113.352 28.922 113.502 28.8694C113.651 28.8168 113.811 28.7957 113.969 28.8073H127.886C128.177 28.8287 128.449 28.9594 128.647 29.1731C128.846 29.3868 128.956 29.6676 128.956 29.9592C128.956 30.2509 128.846 30.5318 128.647 30.7454C128.449 30.9591 128.177 31.0897 127.886 31.1112H127.911Z" fill="white"/>
<path d="M54.2559 5.88331e-06H32.7408C32.2766 -0.000816614 31.8167 0.0900288 31.3875 0.267329C30.9584 0.444628 30.5685 0.704899 30.2402 1.03321C29.9119 1.36152 29.6516 1.75141 29.4743 2.18052C29.2971 2.60964 29.2062 3.06953 29.207 3.53383V17.975C29.2062 18.4393 29.2971 18.8992 29.4743 19.3283C29.6516 19.7575 29.9119 20.1474 30.2402 20.4757C30.5685 20.804 30.9584 21.0642 31.3875 21.2415C31.8167 21.4188 32.2766 21.5097 32.7408 21.5089H40.6139L43.4984 24.3934L46.3829 21.5089H54.2559C54.7202 21.5097 55.1801 21.4188 55.6092 21.2415C56.0384 21.0642 56.4283 20.804 56.7566 20.4757C57.0849 20.1474 57.3451 19.7575 57.5224 19.3283C57.6997 18.8992 57.7906 18.4393 57.7898 17.975V3.56505C57.7947 3.09813 57.7069 2.63488 57.5315 2.20215C57.356 1.76942 57.0964 1.37583 56.7677 1.0442C56.439 0.712575 56.0477 0.449509 55.6165 0.270263C55.1854 0.091017 54.7229 -0.000846903 54.2559 5.88331e-06Z" fill="url(#paint6_linear_128_18660)"/>
<path d="M40.714 21.284H32.741C31.8645 21.2823 31.0244 20.933 30.4052 20.3126C29.786 19.6922 29.4382 18.8514 29.4382 17.9749V3.56492C29.4382 2.68838 29.786 1.84765 30.4052 1.22726C31.0244 0.606873 31.8645 0.257513 32.741 0.255859H54.2561C55.1332 0.25751 55.974 0.60667 56.5942 1.22688C57.2144 1.84709 57.5635 2.68781 57.5652 3.56492V18.0061C57.5635 18.8832 57.2144 19.7239 56.5942 20.3442C55.974 20.9644 55.1332 21.3135 54.2561 21.3152H46.2894L43.4986 24.0998L40.714 21.284Z" fill="#5352EE"/>
<path d="M44.9907 14.0354L43.4985 15.0031L42.0064 14.0354C38.2603 11.6254 38.2603 9.90216 38.2603 9.25284C38.26 8.6309 38.4707 8.02728 38.858 7.54068C39.2453 7.05409 39.7863 6.71331 40.3925 6.5741C40.9986 6.43489 41.6341 6.50548 42.1949 6.77432C42.7557 7.04316 43.2087 7.49435 43.4798 8.05408C43.7509 7.49435 44.2039 7.04316 44.7647 6.77432C45.3256 6.50548 45.961 6.43489 46.5672 6.5741C47.1733 6.71331 47.7143 7.05409 48.1016 7.54068C48.4889 8.02728 48.6997 8.6309 48.6994 9.25284C48.7181 9.90216 48.7181 11.6254 44.9907 14.0354Z" fill="#F2F1FF"/>
<path d="M9.9834 115.561H31.5547C32.2998 115.561 33.0145 115.857 33.5414 116.384C34.0683 116.911 34.3643 117.625 34.3643 118.371V127.38C34.3643 128.125 34.0683 128.84 33.5414 129.367C33.0145 129.894 32.2998 130.19 31.5547 130.19H29.2758V133.886L25.8419 130.19H9.9834C9.23826 130.19 8.52363 129.894 7.99674 129.367C7.46984 128.84 7.17383 128.125 7.17383 127.38V118.371C7.17383 117.625 7.46984 116.911 7.99674 116.384C8.52363 115.857 9.23826 115.561 9.9834 115.561Z" fill="url(#paint7_linear_128_18660)"/>
<path d="M25.973 129.933H9.98342C9.30559 129.933 8.65543 129.665 8.17555 129.186C7.69566 128.707 7.42524 128.058 7.42358 127.38V118.37C7.42524 117.693 7.69566 117.043 8.17555 116.564C8.65543 116.086 9.30559 115.817 9.98342 115.817H31.5547C32.2325 115.817 32.8827 116.086 33.3626 116.564C33.8425 117.043 34.1129 117.693 34.1145 118.37V127.38C34.1129 128.058 33.8425 128.707 33.3626 129.186C32.8827 129.665 32.2325 129.933 31.5547 129.933H29.0573V133.249L25.973 129.933Z" fill="#5352EE"/>
<path d="M27.7025 120.943C28.073 120.943 28.4351 121.053 28.7431 121.259C29.0512 121.464 29.2912 121.757 29.433 122.099C29.5748 122.441 29.6119 122.818 29.5396 123.181C29.4673 123.545 29.2889 123.878 29.027 124.14C28.765 124.402 28.4313 124.581 28.068 124.653C27.7046 124.725 27.328 124.688 26.9858 124.546C26.6435 124.405 26.351 124.165 26.1452 123.857C25.9393 123.549 25.8295 123.186 25.8295 122.816C25.8295 122.319 26.0268 121.843 26.3781 121.491C26.7294 121.14 27.2058 120.943 27.7025 120.943ZM18.9179 122.816C18.9179 123.186 19.0278 123.549 19.2336 123.857C19.4394 124.165 19.7319 124.405 20.0742 124.546C20.4165 124.688 20.7931 124.725 21.1564 124.653C21.5197 124.581 21.8535 124.402 22.1154 124.14C22.3774 123.878 22.5558 123.545 22.628 123.181C22.7003 122.818 22.6632 122.441 22.5215 122.099C22.3797 121.757 22.1396 121.464 21.8316 121.259C21.5236 121.053 21.1614 120.943 20.791 120.943C20.3028 120.943 19.8338 121.133 19.4839 121.474C19.134 121.814 18.931 122.278 18.9179 122.766V122.816ZM11.9939 122.816C11.9939 123.186 12.1037 123.549 12.3096 123.857C12.5154 124.165 12.8079 124.405 13.1502 124.546C13.4924 124.688 13.869 124.725 14.2324 124.653C14.5957 124.581 14.9294 124.402 15.1914 124.14C15.4533 123.878 15.6317 123.545 15.704 123.181C15.7763 122.818 15.7392 122.441 15.5974 122.099C15.4557 121.757 15.2156 121.464 14.9076 121.259C14.5995 121.053 14.2374 120.943 13.8669 120.943C13.3787 120.943 12.9097 121.133 12.5599 121.474C12.21 121.814 12.0069 122.278 11.9939 122.766V122.816Z" fill="#FFFEFF"/>
<path d="M149.051 126.219C149.046 126.055 149.031 125.893 149.007 125.732C149.007 125.732 149.007 125.682 149.007 125.657V125.55C148.87 124.688 148.565 123.86 148.108 123.115L147.958 122.878C147.694 122.496 147.393 122.141 147.059 121.817C146.903 121.663 146.738 121.517 146.566 121.38L146.229 121.13L146.167 121.093C146.09 121.036 146.011 120.984 145.929 120.936L145.798 120.855L145.736 120.824L145.686 120.793H145.642C145.377 120.65 145.104 120.522 144.824 120.412L144.656 120.35H144.606H144.556H144.475H144.418H144.343H144.281H144.244H144.2H144.125H144.063H144.006H143.969H143.9H143.85H143.782H143.463H143.413H143.288H143.213H142.589C142.452 120.35 142.321 120.35 142.183 120.35H141.958H141.827H141.784H141.603H141.521H141.397H141.303L141.134 120.381C140.941 120.425 140.747 120.468 140.56 120.531L140.223 120.637C139.704 120.825 139.209 121.074 138.749 121.38L138.612 121.48L138.381 121.648L138.318 121.698L138.194 121.798L138.125 121.861L138 121.973V122.004C137.794 122.198 137.663 122.335 137.657 122.348L137.469 122.56C137.426 122.616 137.376 122.666 137.332 122.728C137.238 122.847 137.145 122.978 137.032 123.14L136.882 123.384L136.758 123.59L136.633 123.84C136.589 123.915 136.552 123.996 136.514 124.064C136.477 124.133 136.377 124.383 136.308 124.576C136.252 124.739 136.196 124.92 136.146 125.088C136.09 125.313 136.04 125.525 136.015 125.713C135.95 126.069 135.917 126.431 135.915 126.793C135.911 127.146 135.936 127.499 135.99 127.848C136.043 128.197 136.122 128.541 136.227 128.878C136.333 129.213 136.467 129.539 136.627 129.852C136.688 129.988 136.759 130.119 136.839 130.246C136.928 130.404 137.029 130.556 137.138 130.701L137.176 130.758C137.291 130.936 137.423 131.103 137.569 131.257C137.663 131.357 137.788 131.501 137.888 131.6C137.988 131.7 138.119 131.825 138.231 131.919L138.512 132.15C138.643 132.257 138.78 132.355 138.924 132.443C139.02 132.506 139.118 132.567 139.218 132.624L139.317 132.681L139.461 132.762H139.499C139.661 132.843 139.867 132.943 140.092 133.03C140.142 133.03 140.204 133.08 140.285 133.105L140.354 133.136L140.473 133.174H140.554H140.597H140.672H140.747C141.018 133.25 141.293 133.309 141.571 133.349H141.646H141.715H141.859H142.083H142.289H142.701H143.02C143.22 133.349 143.482 133.299 143.682 133.267C143.854 133.24 144.025 133.202 144.194 133.155L144.318 133.118L144.662 133.018L144.781 132.968L145.068 132.862H145.118C145.23 132.818 145.361 132.755 145.486 132.693L145.636 132.612C145.787 132.538 145.933 132.455 146.073 132.362L146.41 132.131L146.479 132.081L146.597 131.987L146.697 131.913L146.878 131.763C147.011 131.653 147.138 131.536 147.259 131.413C147.353 131.313 147.465 131.195 147.59 131.051C147.795 130.812 147.98 130.557 148.146 130.289C148.196 130.208 148.246 130.114 148.296 130.021L148.358 129.902L148.445 129.734V129.684C148.489 129.596 148.527 129.503 148.57 129.403C148.614 129.303 148.683 129.14 148.72 129.028C148.798 128.824 148.862 128.616 148.914 128.404C148.951 128.277 148.98 128.147 149.001 128.017C149.001 127.879 149.051 127.742 149.07 127.598C149.066 127.565 149.066 127.532 149.07 127.498C149.07 127.311 149.101 127.111 149.107 126.905V126.868C149.064 126.562 149.064 126.387 149.051 126.219Z" fill="#D9D9D9"/>
<path d="M172.752 15.9968C176.068 12.6808 176.068 7.30451 172.752 3.98851C169.436 0.672508 164.06 0.672515 160.744 3.98852C157.428 7.30452 157.428 12.6808 160.744 15.9968C164.06 19.3128 169.436 19.3128 172.752 15.9968Z" fill="url(#paint8_linear_128_18660)"/>
<path d="M166.745 18.2434C165.111 18.2447 163.513 17.7611 162.154 16.854C160.794 15.9468 159.735 14.6568 159.109 13.1472C158.483 11.6376 158.319 9.97625 158.637 8.37336C158.956 6.77046 159.743 5.29807 160.898 4.14249C162.054 2.98692 163.526 2.20008 165.129 1.88156C166.732 1.56304 168.393 1.72714 169.903 2.35311C171.412 2.97907 172.702 4.03877 173.61 5.3981C174.517 6.75743 175 8.3553 174.999 9.98953C174.996 12.1776 174.125 14.2751 172.578 15.8223C171.031 17.3695 168.933 18.2401 166.745 18.2434Z" fill="#00AFC9"/>
<path d="M169.686 7.04275C169.687 7.62613 169.515 8.19674 169.192 8.68232C168.868 9.16789 168.408 9.54657 167.87 9.77039C167.331 9.99421 166.738 10.0531 166.166 9.93959C165.593 9.82608 165.068 9.54528 164.655 9.13277C164.243 8.72026 163.962 8.1946 163.848 7.62237C163.735 7.05014 163.794 6.45709 164.018 5.91836C164.241 5.37962 164.62 4.91944 165.106 4.5961C165.591 4.27276 166.162 4.10082 166.745 4.10206C167.525 4.10206 168.273 4.41188 168.825 4.96337C169.376 5.51485 169.686 6.26283 169.686 7.04275Z" fill="white"/>
<path d="M166.745 17.7314C167.806 17.7318 168.856 17.513 169.828 17.0886C170.8 16.6642 171.675 16.0434 172.396 15.2652C171.983 14.0949 171.218 13.0813 170.206 12.3643C169.193 11.6473 167.983 11.2622 166.742 11.2622C165.501 11.2622 164.291 11.6473 163.279 12.3643C162.266 13.0813 161.501 14.0949 161.089 15.2652C161.81 16.0442 162.686 16.6654 163.659 17.0899C164.632 17.5143 165.683 17.7327 166.745 17.7314Z" fill="white"/>
</g>
<defs>
<linearGradient id="paint0_linear_128_18660" x1="49.6921" y1="124.445" x2="45.3029" y2="130.62" gradientUnits="userSpaceOnUse">
<stop offset="0.36" stop-color="#9FA9FF"/>
<stop offset="0.5" stop-color="#909CFF"/>
<stop offset="0.65" stop-color="#7A88FF"/>
</linearGradient>
<linearGradient id="paint1_linear_128_18660" x1="50.435" y1="85.261" x2="29.2383" y2="122.385" gradientUnits="userSpaceOnUse">
<stop offset="0.36" stop-color="#9FA9FF"/>
<stop offset="0.5" stop-color="#909CFF"/>
<stop offset="0.65" stop-color="#7A88FF"/>
</linearGradient>
<linearGradient id="paint2_linear_128_18660" x1="168.55" y1="94.3767" x2="172.427" y2="125.444" gradientUnits="userSpaceOnUse">
<stop offset="0.39" stop-color="#7B9AF2"/>
<stop offset="0.51" stop-color="#5352EE"/>
<stop offset="0.63" stop-color="#3130C8"/>
</linearGradient>
<linearGradient id="paint3_linear_128_18660" x1="161.214" y1="118.739" x2="181.492" y2="118.739" gradientUnits="userSpaceOnUse">
<stop/>
<stop offset="1" stop-color="#5352EE"/>
</linearGradient>
<linearGradient id="paint4_linear_128_18660" x1="190.121" y1="73.7669" x2="172.976" y2="143.588" gradientUnits="userSpaceOnUse">
<stop offset="0.35" stop-color="#BEF6F4"/>
<stop offset="0.5" stop-color="#3AE4DF"/>
<stop offset="0.64" stop-color="#00AFC9"/>
</linearGradient>
<linearGradient id="paint5_linear_128_18660" x1="141.696" y1="15.4088" x2="136.932" y2="39.44" gradientUnits="userSpaceOnUse">
<stop offset="0.38" stop-color="#ACD1FF"/>
<stop offset="0.5" stop-color="#A2C4FF"/>
<stop offset="0.64" stop-color="#7FAEFF"/>
</linearGradient>
<linearGradient id="paint6_linear_128_18660" x1="50.5348" y1="-0.63683" x2="35.9875" y2="22.9136" gradientUnits="userSpaceOnUse">
<stop offset="0.35" stop-color="#BEF6F4"/>
<stop offset="0.5" stop-color="#3AE4DF"/>
<stop offset="0.64" stop-color="#00AFC9"/>
</linearGradient>
<linearGradient id="paint7_linear_128_18660" x1="25.4485" y1="112.595" x2="14.9282" y2="135.753" gradientUnits="userSpaceOnUse">
<stop offset="0.35" stop-color="#BEF6F4"/>
<stop offset="0.5" stop-color="#3AE4DF"/>
<stop offset="0.64" stop-color="#00AFC9"/>
</linearGradient>
<linearGradient id="paint8_linear_128_18660" x1="169.87" y1="1.77418" x2="163.901" y2="17.4891" gradientUnits="userSpaceOnUse">
<stop offset="0.36" stop-color="#9FA9FF"/>
<stop offset="0.5" stop-color="#909CFF"/>
<stop offset="0.65" stop-color="#7A88FF"/>
</linearGradient>
<clipPath id="clip0_128_18660">
<rect width="196.614" height="157.243" fill="white"/>
</clipPath>
</defs>
</svg>
